<?xml version="1.0" encoding="utf-8" standalone="no"?>
<!DOCTYPE svg PUBLIC "-//W3C//DTD SVG 1.1//EN"
  "http://www.w3.org/Graphics/SVG/1.1/DTD/svg11.dtd">
<!-- Created with matplotlib (https://matplotlib.org/) -->
<svg height="288pt" version="1.1" viewBox="0 0 432 288" width="432pt" xmlns="http://www.w3.org/2000/svg" xmlns:xlink="http://www.w3.org/1999/xlink">
 <defs>
  <style type="text/css">
*{stroke-linecap:butt;stroke-linejoin:round;}
  </style>
 </defs>
 <g id="figure_1">
  <g id="patch_1">
   <path d="M 0 288 
L 432 288 
L 432 0 
L 0 0 
z
" style="fill:#ffffff;"/>
  </g>
  <g id="axes_1">
   <g id="patch_2">
    <path d="M 54 252 
L 388.8 252 
L 388.8 34.56 
L 54 34.56 
z
" style="fill:#ffffff;"/>
   </g>
   <g id="PathCollection_1">
    <path clip-path="url(#p787a219f33)" d="M 57.72 247.863913 
L 60.975 252 
L 61.44 252 
L 65.16 252 
L 68.88 252 
L 72.6 252 
L 76.32 252 
L 80.04 252 
L 83.76 252 
L 87.48 252 
L 91.2 252 
L 94.92 252 
L 98.64 252 
L 102.36 252 
L 106.08 252 
L 109.8 252 
L 113.52 252 
L 117.24 252 
L 120.96 252 
L 124.68 252 
L 128.4 252 
L 132.12 252 
L 135.84 252 
L 136.77 252 
L 136.77 247.273043 
L 136.77 242.546087 
L 139.56 239.00087 
L 140.49 237.81913 
L 140.49 233.092174 
L 140.49 228.365217 
L 140.49 223.638261 
L 140.49 218.911304 
L 140.49 214.184348 
L 140.49 209.457391 
L 140.49 204.730435 
L 143.28 201.185217 
L 144.21 200.003478 
L 144.21 195.276522 
L 144.21 190.549565 
L 144.21 185.822609 
L 144.21 181.095652 
L 147 177.550435 
L 147.93 176.368696 
L 147.93 171.641739 
L 147.93 166.914783 
L 150.72 163.369565 
L 151.65 162.187826 
L 151.65 157.46087 
L 151.65 152.733913 
L 154.44 149.188696 
L 155.37 148.006957 
L 155.37 143.28 
L 158.16 139.734783 
L 159.09 138.553043 
L 161.88 135.007826 
L 162.81 133.826087 
L 162.81 129.09913 
L 165.6 125.553913 
L 166.53 124.372174 
L 166.53 119.645217 
L 169.32 116.1 
L 170.25 114.918261 
L 173.04 111.373043 
L 173.97 110.191304 
L 173.97 105.464348 
L 176.76 101.91913 
L 177.69 100.737391 
L 177.69 96.010435 
L 180.48 92.465217 
L 181.41 91.283478 
L 181.41 86.556522 
L 184.2 83.011304 
L 185.13 81.829565 
L 185.13 77.102609 
L 185.13 72.375652 
L 185.13 67.648696 
L 187.92 64.103478 
L 188.85 62.921739 
L 188.85 58.194783 
L 188.85 53.467826 
L 188.85 48.74087 
L 188.85 44.013913 
L 187.92 43.423043 
L 187.455 44.013913 
L 184.2 48.15 
L 180.945 44.013913 
L 180.945 39.286957 
L 180.48 38.696087 
L 177.225 34.56 
L 176.76 34.56 
L 173.04 34.56 
L 169.32 34.56 
L 165.6 34.56 
L 161.88 34.56 
L 158.16 34.56 
L 154.44 34.56 
L 150.72 34.56 
L 147 34.56 
L 143.28 34.56 
L 139.56 34.56 
L 135.84 34.56 
L 132.12 34.56 
L 128.4 34.56 
L 124.68 34.56 
L 120.96 34.56 
L 117.24 34.56 
L 113.52 34.56 
L 109.8 34.56 
L 106.08 34.56 
L 102.36 34.56 
L 98.64 34.56 
L 94.92 34.56 
L 91.2 34.56 
L 87.48 34.56 
L 83.76 34.56 
L 80.04 34.56 
L 76.32 34.56 
L 72.6 34.56 
L 68.88 34.56 
L 65.16 34.56 
L 64.695 34.56 
L 61.44 38.696087 
L 60.975 39.286957 
L 57.72 43.423043 
L 57.255 44.013913 
L 57.255 48.74087 
L 54 52.876957 
L 54 53.467826 
L 54 58.194783 
L 54 62.921739 
L 54 67.648696 
L 54 72.375652 
L 54 77.102609 
L 54 81.829565 
L 54 86.556522 
L 54 91.283478 
L 54 96.010435 
L 54 100.737391 
L 54 105.464348 
L 54 110.191304 
L 54 114.918261 
L 54 119.645217 
L 54 124.372174 
L 54 129.09913 
L 54 133.826087 
L 54 138.553043 
L 54 143.28 
L 54 148.006957 
L 54 152.733913 
L 54 157.46087 
L 54 162.187826 
L 54 166.914783 
L 54 171.641739 
L 54 176.368696 
L 54 181.095652 
L 54 185.822609 
L 54 190.549565 
L 54 195.276522 
L 54 200.003478 
L 54 204.730435 
L 54 209.457391 
L 54 214.184348 
L 54 218.911304 
L 54 223.638261 
L 54 228.365217 
L 54 233.092174 
L 54 237.81913 
L 54 242.546087 
L 54 243.136957 
L 57.255 247.273043 
z
" style="fill:#48186a;fill-opacity:0.4;"/>
   </g>
   <g id="PathCollection_2">
    <path clip-path="url(#p787a219f33)" d="M 57.72 248.454783 
L 60.51 252 
L 60.975 252 
L 57.72 247.863913 
L 57.255 247.273043 
L 54 243.136957 
L 54 243.727826 
L 56.79 247.273043 
z
" style="fill:#424086;fill-opacity:0.4;"/>
    <path clip-path="url(#p787a219f33)" d="M 137.7 247.273043 
L 137.7 242.546087 
L 139.56 240.182609 
L 141.42 237.81913 
L 141.42 233.092174 
L 141.42 228.365217 
L 141.42 223.638261 
L 141.42 218.911304 
L 141.42 214.184348 
L 141.42 209.457391 
L 141.42 204.730435 
L 143.28 202.366957 
L 145.14 200.003478 
L 145.14 195.276522 
L 145.14 190.549565 
L 145.14 185.822609 
L 145.14 181.095652 
L 147 178.732174 
L 148.86 176.368696 
L 148.86 171.641739 
L 148.86 166.914783 
L 150.72 164.551304 
L 152.58 162.187826 
L 152.58 157.46087 
L 152.58 152.733913 
L 154.44 150.370435 
L 156.3 148.006957 
L 156.3 143.28 
L 158.16 140.916522 
L 160.02 138.553043 
L 161.88 136.189565 
L 163.74 133.826087 
L 163.74 129.09913 
L 165.6 126.735652 
L 167.46 124.372174 
L 167.46 119.645217 
L 169.32 117.281739 
L 171.18 114.918261 
L 173.04 112.554783 
L 174.9 110.191304 
L 174.9 105.464348 
L 176.76 103.10087 
L 178.62 100.737391 
L 178.62 96.010435 
L 180.48 93.646957 
L 182.34 91.283478 
L 182.34 86.556522 
L 184.2 84.193043 
L 186.06 81.829565 
L 186.06 77.102609 
L 186.06 72.375652 
L 186.06 67.648696 
L 187.92 65.285217 
L 189.78 62.921739 
L 189.78 58.194783 
L 189.78 53.467826 
L 189.78 48.74087 
L 189.78 44.013913 
L 187.92 42.832174 
L 186.99 44.013913 
L 184.2 47.55913 
L 181.41 44.013913 
L 181.41 39.286957 
L 180.48 38.105217 
L 177.69 34.56 
L 177.225 34.56 
L 180.48 38.696087 
L 180.945 39.286957 
L 180.945 44.013913 
L 184.2 48.15 
L 187.455 44.013913 
L 187.92 43.423043 
L 188.85 44.013913 
L 188.85 48.74087 
L 188.85 53.467826 
L 188.85 58.194783 
L 188.85 62.921739 
L 187.92 64.103478 
L 185.13 67.648696 
L 185.13 72.375652 
L 185.13 77.102609 
L 185.13 81.829565 
L 184.2 83.011304 
L 181.41 86.556522 
L 181.41 91.283478 
L 180.48 92.465217 
L 177.69 96.010435 
L 177.69 100.737391 
L 176.76 101.91913 
L 173.97 105.464348 
L 173.97 110.191304 
L 173.04 111.373043 
L 170.25 114.918261 
L 169.32 116.1 
L 166.53 119.645217 
L 166.53 124.372174 
L 165.6 125.553913 
L 162.81 129.09913 
L 162.81 133.826087 
L 161.88 135.007826 
L 159.09 138.553043 
L 158.16 139.734783 
L 155.37 143.28 
L 155.37 148.006957 
L 154.44 149.188696 
L 151.65 152.733913 
L 151.65 157.46087 
L 151.65 162.187826 
L 150.72 163.369565 
L 147.93 166.914783 
L 147.93 171.641739 
L 147.93 176.368696 
L 147 177.550435 
L 144.21 181.095652 
L 144.21 185.822609 
L 144.21 190.549565 
L 144.21 195.276522 
L 144.21 200.003478 
L 143.28 201.185217 
L 140.49 204.730435 
L 140.49 209.457391 
L 140.49 214.184348 
L 140.49 218.911304 
L 140.49 223.638261 
L 140.49 228.365217 
L 140.49 233.092174 
L 140.49 237.81913 
L 139.56 239.00087 
L 136.77 242.546087 
L 136.77 247.273043 
L 136.77 252 
L 137.7 252 
z
" style="fill:#424086;fill-opacity:0.4;"/>
    <path clip-path="url(#p787a219f33)" d="M 57.255 48.74087 
L 57.255 44.013913 
L 57.72 43.423043 
L 60.975 39.286957 
L 61.44 38.696087 
L 64.695 34.56 
L 64.23 34.56 
L 61.44 38.105217 
L 60.51 39.286957 
L 57.72 42.832174 
L 56.79 44.013913 
L 56.79 48.74087 
L 54 52.286087 
L 54 52.876957 
z
" style="fill:#424086;fill-opacity:0.4;"/>
   </g>
   <g id="PathCollection_3">
    <path clip-path="url(#p787a219f33)" d="M 57.72 249.045652 
L 60.045 252 
L 60.51 252 
L 57.72 248.454783 
L 56.79 247.273043 
L 54 243.727826 
L 54 244.318696 
L 56.325 247.273043 
z
" style="fill:#33638d;fill-opacity:0.4;"/>
    <path clip-path="url(#p787a219f33)" d="M 138.63 247.273043 
L 138.63 242.546087 
L 139.56 241.364348 
L 142.35 237.81913 
L 142.35 233.092174 
L 142.35 228.365217 
L 142.35 223.638261 
L 142.35 218.911304 
L 142.35 214.184348 
L 142.35 209.457391 
L 142.35 204.730435 
L 143.28 203.548696 
L 146.07 200.003478 
L 146.07 195.276522 
L 146.07 190.549565 
L 146.07 185.822609 
L 146.07 181.095652 
L 147 179.913913 
L 149.79 176.368696 
L 149.79 171.641739 
L 149.79 166.914783 
L 150.72 165.733043 
L 153.51 162.187826 
L 153.51 157.46087 
L 153.51 152.733913 
L 154.44 151.552174 
L 157.23 148.006957 
L 157.23 143.28 
L 158.16 142.098261 
L 160.95 138.553043 
L 161.88 137.371304 
L 164.67 133.826087 
L 164.67 129.09913 
L 165.6 127.917391 
L 168.39 124.372174 
L 168.39 119.645217 
L 169.32 118.463478 
L 172.11 114.918261 
L 173.04 113.736522 
L 175.83 110.191304 
L 175.83 105.464348 
L 176.76 104.282609 
L 179.55 100.737391 
L 179.55 96.010435 
L 180.48 94.828696 
L 183.27 91.283478 
L 183.27 86.556522 
L 184.2 85.374783 
L 186.99 81.829565 
L 186.99 77.102609 
L 186.99 72.375652 
L 186.99 67.648696 
L 187.92 66.466957 
L 190.71 62.921739 
L 190.71 58.194783 
L 190.71 53.467826 
L 190.71 48.74087 
L 190.71 44.013913 
L 187.92 42.241304 
L 186.525 44.013913 
L 184.2 46.968261 
L 181.875 44.013913 
L 181.875 39.286957 
L 180.48 37.514348 
L 178.155 34.56 
L 177.69 34.56 
L 180.48 38.105217 
L 181.41 39.286957 
L 181.41 44.013913 
L 184.2 47.55913 
L 186.99 44.013913 
L 187.92 42.832174 
L 189.78 44.013913 
L 189.78 48.74087 
L 189.78 53.467826 
L 189.78 58.194783 
L 189.78 62.921739 
L 187.92 65.285217 
L 186.06 67.648696 
L 186.06 72.375652 
L 186.06 77.102609 
L 186.06 81.829565 
L 184.2 84.193043 
L 182.34 86.556522 
L 182.34 91.283478 
L 180.48 93.646957 
L 178.62 96.010435 
L 178.62 100.737391 
L 176.76 103.10087 
L 174.9 105.464348 
L 174.9 110.191304 
L 173.04 112.554783 
L 171.18 114.918261 
L 169.32 117.281739 
L 167.46 119.645217 
L 167.46 124.372174 
L 165.6 126.735652 
L 163.74 129.09913 
L 163.74 133.826087 
L 161.88 136.189565 
L 160.02 138.553043 
L 158.16 140.916522 
L 156.3 143.28 
L 156.3 148.006957 
L 154.44 150.370435 
L 152.58 152.733913 
L 152.58 157.46087 
L 152.58 162.187826 
L 150.72 164.551304 
L 148.86 166.914783 
L 148.86 171.641739 
L 148.86 176.368696 
L 147 178.732174 
L 145.14 181.095652 
L 145.14 185.822609 
L 145.14 190.549565 
L 145.14 195.276522 
L 145.14 200.003478 
L 143.28 202.366957 
L 141.42 204.730435 
L 141.42 209.457391 
L 141.42 214.184348 
L 141.42 218.911304 
L 141.42 223.638261 
L 141.42 228.365217 
L 141.42 233.092174 
L 141.42 237.81913 
L 139.56 240.182609 
L 137.7 242.546087 
L 137.7 247.273043 
L 137.7 252 
L 138.63 252 
z
" style="fill:#33638d;fill-opacity:0.4;"/>
    <path clip-path="url(#p787a219f33)" d="M 56.79 48.74087 
L 56.79 44.013913 
L 57.72 42.832174 
L 60.51 39.286957 
L 61.44 38.105217 
L 64.23 34.56 
L 63.765 34.56 
L 61.44 37.514348 
L 60.045 39.286957 
L 57.72 42.241304 
L 56.325 44.013913 
L 56.325 48.74087 
L 54 51.695217 
L 54 52.286087 
z
" style="fill:#33638d;fill-opacity:0.4;"/>
   </g>
   <g id="PathCollection_4">
    <path clip-path="url(#p787a219f33)" d="M 57.72 249.636522 
L 59.58 252 
L 60.045 252 
L 57.72 249.045652 
L 56.325 247.273043 
L 54 244.318696 
L 54 244.909565 
L 55.86 247.273043 
z
" style="fill:#26828e;fill-opacity:0.4;"/>
    <path clip-path="url(#p787a219f33)" d="M 139.56 252 
L 143.28 252 
L 147 252 
L 150.72 252 
L 154.44 252 
L 158.16 252 
L 161.88 252 
L 165.6 252 
L 169.32 252 
L 173.04 252 
L 176.76 252 
L 180.48 252 
L 184.2 252 
L 187.92 252 
L 191.64 252 
L 195.36 252 
L 199.08 252 
L 202.8 252 
L 206.52 252 
L 210.24 252 
L 213.96 247.273043 
L 213.96 242.546087 
L 217.68 237.81913 
L 217.68 233.092174 
L 221.4 228.365217 
L 221.4 223.638261 
L 225.12 218.911304 
L 225.12 214.184348 
L 228.84 209.457391 
L 228.84 204.730435 
L 232.56 200.003478 
L 236.28 195.276522 
L 236.28 190.549565 
L 240 185.822609 
L 243.72 181.095652 
L 243.72 176.368696 
L 247.44 171.641739 
L 251.16 166.914783 
L 251.16 162.187826 
L 254.88 157.46087 
L 258.6 152.733913 
L 258.6 148.006957 
L 262.32 143.28 
L 262.32 138.553043 
L 266.04 133.826087 
L 266.04 129.09913 
L 269.76 124.372174 
L 269.76 119.645217 
L 273.48 114.918261 
L 273.48 110.191304 
L 273.48 105.464348 
L 277.2 100.737391 
L 277.2 96.010435 
L 277.2 91.283478 
L 277.2 86.556522 
L 277.2 81.829565 
L 277.2 77.102609 
L 277.2 72.375652 
L 277.2 67.648696 
L 277.2 62.921739 
L 277.2 58.194783 
L 277.2 53.467826 
L 277.2 48.74087 
L 273.48 44.013913 
L 273.48 39.286957 
L 269.76 34.56 
L 266.04 34.56 
L 262.32 34.56 
L 258.6 34.56 
L 254.88 34.56 
L 251.16 34.56 
L 247.44 34.56 
L 243.72 34.56 
L 240 34.56 
L 236.28 34.56 
L 232.56 34.56 
L 228.84 34.56 
L 225.12 34.56 
L 221.4 34.56 
L 217.68 34.56 
L 213.96 34.56 
L 210.24 34.56 
L 206.52 34.56 
L 202.8 34.56 
L 199.08 34.56 
L 195.36 39.286957 
L 191.64 44.013913 
L 187.92 41.650435 
L 186.06 44.013913 
L 184.2 46.377391 
L 182.34 44.013913 
L 182.34 39.286957 
L 180.48 36.923478 
L 178.62 34.56 
L 178.155 34.56 
L 180.48 37.514348 
L 181.875 39.286957 
L 181.875 44.013913 
L 184.2 46.968261 
L 186.525 44.013913 
L 187.92 42.241304 
L 190.71 44.013913 
L 190.71 48.74087 
L 190.71 53.467826 
L 190.71 58.194783 
L 190.71 62.921739 
L 187.92 66.466957 
L 186.99 67.648696 
L 186.99 72.375652 
L 186.99 77.102609 
L 186.99 81.829565 
L 184.2 85.374783 
L 183.27 86.556522 
L 183.27 91.283478 
L 180.48 94.828696 
L 179.55 96.010435 
L 179.55 100.737391 
L 176.76 104.282609 
L 175.83 105.464348 
L 175.83 110.191304 
L 173.04 113.736522 
L 172.11 114.918261 
L 169.32 118.463478 
L 168.39 119.645217 
L 168.39 124.372174 
L 165.6 127.917391 
L 164.67 129.09913 
L 164.67 133.826087 
L 161.88 137.371304 
L 160.95 138.553043 
L 158.16 142.098261 
L 157.23 143.28 
L 157.23 148.006957 
L 154.44 151.552174 
L 153.51 152.733913 
L 153.51 157.46087 
L 153.51 162.187826 
L 150.72 165.733043 
L 149.79 166.914783 
L 149.79 171.641739 
L 149.79 176.368696 
L 147 179.913913 
L 146.07 181.095652 
L 146.07 185.822609 
L 146.07 190.549565 
L 146.07 195.276522 
L 146.07 200.003478 
L 143.28 203.548696 
L 142.35 204.730435 
L 142.35 209.457391 
L 142.35 214.184348 
L 142.35 218.911304 
L 142.35 223.638261 
L 142.35 228.365217 
L 142.35 233.092174 
L 142.35 237.81913 
L 139.56 241.364348 
L 138.63 242.546087 
L 138.63 247.273043 
L 138.63 252 
z
" style="fill:#26828e;fill-opacity:0.4;"/>
    <path clip-path="url(#p787a219f33)" d="M 56.325 48.74087 
L 56.325 44.013913 
L 57.72 42.241304 
L 60.045 39.286957 
L 61.44 37.514348 
L 63.765 34.56 
L 63.3 34.56 
L 61.44 36.923478 
L 59.58 39.286957 
L 57.72 41.650435 
L 55.86 44.013913 
L 55.86 48.74087 
L 54 51.104348 
L 54 51.695217 
z
" style="fill:#26828e;fill-opacity:0.4;"/>
   </g>
   <g id="PathCollection_5">
    <path clip-path="url(#p787a219f33)" d="M 57.72 250.227391 
L 59.115 252 
L 59.58 252 
L 57.72 249.636522 
L 55.86 247.273043 
L 54 244.909565 
L 54 245.500435 
L 55.395 247.273043 
z
" style="fill:#1fa088;fill-opacity:0.4;"/>
    <path clip-path="url(#p787a219f33)" d="M 213.96 248.454783 
L 214.89 247.273043 
L 214.89 242.546087 
L 217.68 239.00087 
L 218.61 237.81913 
L 218.61 233.092174 
L 221.4 229.546957 
L 222.33 228.365217 
L 222.33 223.638261 
L 225.12 220.093043 
L 226.05 218.911304 
L 226.05 214.184348 
L 228.84 210.63913 
L 229.77 209.457391 
L 229.77 204.730435 
L 232.56 201.185217 
L 233.49 200.003478 
L 236.28 196.458261 
L 237.21 195.276522 
L 237.21 190.549565 
L 240 187.004348 
L 240.93 185.822609 
L 243.72 182.277391 
L 244.65 181.095652 
L 244.65 176.368696 
L 247.44 172.823478 
L 248.37 171.641739 
L 251.16 168.096522 
L 252.09 166.914783 
L 252.09 162.187826 
L 254.88 158.642609 
L 255.81 157.46087 
L 258.6 153.915652 
L 259.53 152.733913 
L 259.53 148.006957 
L 262.32 144.461739 
L 263.25 143.28 
L 263.25 138.553043 
L 266.04 135.007826 
L 266.97 133.826087 
L 266.97 129.09913 
L 269.76 125.553913 
L 270.69 124.372174 
L 270.69 119.645217 
L 273.48 116.1 
L 274.41 114.918261 
L 274.41 110.191304 
L 274.41 105.464348 
L 277.2 101.91913 
L 278.13 100.737391 
L 278.13 96.010435 
L 278.13 91.283478 
L 278.13 86.556522 
L 278.13 81.829565 
L 278.13 77.102609 
L 278.13 72.375652 
L 278.13 67.648696 
L 278.13 62.921739 
L 278.13 58.194783 
L 278.13 53.467826 
L 278.13 48.74087 
L 277.2 47.55913 
L 274.41 44.013913 
L 274.41 39.286957 
L 273.48 38.105217 
L 270.69 34.56 
L 269.76 34.56 
L 273.48 39.286957 
L 273.48 44.013913 
L 277.2 48.74087 
L 277.2 53.467826 
L 277.2 58.194783 
L 277.2 62.921739 
L 277.2 67.648696 
L 277.2 72.375652 
L 277.2 77.102609 
L 277.2 81.829565 
L 277.2 86.556522 
L 277.2 91.283478 
L 277.2 96.010435 
L 277.2 100.737391 
L 273.48 105.464348 
L 273.48 110.191304 
L 273.48 114.918261 
L 269.76 119.645217 
L 269.76 124.372174 
L 266.04 129.09913 
L 266.04 133.826087 
L 262.32 138.553043 
L 262.32 143.28 
L 258.6 148.006957 
L 258.6 152.733913 
L 254.88 157.46087 
L 251.16 162.187826 
L 251.16 166.914783 
L 247.44 171.641739 
L 243.72 176.368696 
L 243.72 181.095652 
L 240 185.822609 
L 236.28 190.549565 
L 236.28 195.276522 
L 232.56 200.003478 
L 228.84 204.730435 
L 228.84 209.457391 
L 225.12 214.184348 
L 225.12 218.911304 
L 221.4 223.638261 
L 221.4 228.365217 
L 217.68 233.092174 
L 217.68 237.81913 
L 213.96 242.546087 
L 213.96 247.273043 
L 210.24 252 
L 211.17 252 
z
" style="fill:#1fa088;fill-opacity:0.4;"/>
    <path clip-path="url(#p787a219f33)" d="M 55.86 48.74087 
L 55.86 44.013913 
L 57.72 41.650435 
L 59.58 39.286957 
L 61.44 36.923478 
L 63.3 34.56 
L 62.835 34.56 
L 61.44 36.332609 
L 59.115 39.286957 
L 57.72 41.059565 
L 55.395 44.013913 
L 55.395 48.74087 
L 54 50.513478 
L 54 51.104348 
z
" style="fill:#1fa088;fill-opacity:0.4;"/>
    <path clip-path="url(#p787a219f33)" d="M 184.2 46.377391 
L 186.06 44.013913 
L 187.92 41.650435 
L 191.64 44.013913 
L 195.36 39.286957 
L 199.08 34.56 
L 198.15 34.56 
L 195.36 38.105217 
L 194.43 39.286957 
L 191.64 42.832174 
L 187.92 41.059565 
L 185.595 44.013913 
L 184.2 45.786522 
L 182.805 44.013913 
L 182.805 39.286957 
L 180.48 36.332609 
L 179.085 34.56 
L 178.62 34.56 
L 180.48 36.923478 
L 182.34 39.286957 
L 182.34 44.013913 
z
" style="fill:#1fa088;fill-opacity:0.4;"/>
   </g>
   <g id="PathCollection_6">
    <path clip-path="url(#p787a219f33)" d="M 57.72 250.818261 
L 58.65 252 
L 59.115 252 
L 57.72 250.227391 
L 55.395 247.273043 
L 54 245.500435 
L 54 246.091304 
L 54.93 247.273043 
z
" style="fill:#3fbc73;fill-opacity:0.4;"/>
    <path clip-path="url(#p787a219f33)" d="M 213.96 249.636522 
L 215.82 247.273043 
L 215.82 242.546087 
L 217.68 240.182609 
L 219.54 237.81913 
L 219.54 233.092174 
L 221.4 230.728696 
L 223.26 228.365217 
L 223.26 223.638261 
L 225.12 221.274783 
L 226.98 218.911304 
L 226.98 214.184348 
L 228.84 211.82087 
L 230.7 209.457391 
L 230.7 204.730435 
L 232.56 202.366957 
L 234.42 200.003478 
L 236.28 197.64 
L 238.14 195.276522 
L 238.14 190.549565 
L 240 188.186087 
L 241.86 185.822609 
L 243.72 183.45913 
L 245.58 181.095652 
L 245.58 176.368696 
L 247.44 174.005217 
L 249.3 171.641739 
L 251.16 169.278261 
L 253.02 166.914783 
L 253.02 162.187826 
L 254.88 159.824348 
L 256.74 157.46087 
L 258.6 155.097391 
L 260.46 152.733913 
L 260.46 148.006957 
L 262.32 145.643478 
L 264.18 143.28 
L 264.18 138.553043 
L 266.04 136.189565 
L 267.9 133.826087 
L 267.9 129.09913 
L 269.76 126.735652 
L 271.62 124.372174 
L 271.62 119.645217 
L 273.48 117.281739 
L 275.34 114.918261 
L 275.34 110.191304 
L 275.34 105.464348 
L 277.2 103.10087 
L 279.06 100.737391 
L 279.06 96.010435 
L 279.06 91.283478 
L 279.06 86.556522 
L 279.06 81.829565 
L 279.06 77.102609 
L 279.06 72.375652 
L 279.06 67.648696 
L 279.06 62.921739 
L 279.06 58.194783 
L 279.06 53.467826 
L 279.06 48.74087 
L 277.2 46.377391 
L 275.34 44.013913 
L 275.34 39.286957 
L 273.48 36.923478 
L 271.62 34.56 
L 270.69 34.56 
L 273.48 38.105217 
L 274.41 39.286957 
L 274.41 44.013913 
L 277.2 47.55913 
L 278.13 48.74087 
L 278.13 53.467826 
L 278.13 58.194783 
L 278.13 62.921739 
L 278.13 67.648696 
L 278.13 72.375652 
L 278.13 77.102609 
L 278.13 81.829565 
L 278.13 86.556522 
L 278.13 91.283478 
L 278.13 96.010435 
L 278.13 100.737391 
L 277.2 101.91913 
L 274.41 105.464348 
L 274.41 110.191304 
L 274.41 114.918261 
L 273.48 116.1 
L 270.69 119.645217 
L 270.69 124.372174 
L 269.76 125.553913 
L 266.97 129.09913 
L 266.97 133.826087 
L 266.04 135.007826 
L 263.25 138.553043 
L 263.25 143.28 
L 262.32 144.461739 
L 259.53 148.006957 
L 259.53 152.733913 
L 258.6 153.915652 
L 255.81 157.46087 
L 254.88 158.642609 
L 252.09 162.187826 
L 252.09 166.914783 
L 251.16 168.096522 
L 248.37 171.641739 
L 247.44 172.823478 
L 244.65 176.368696 
L 244.65 181.095652 
L 243.72 182.277391 
L 240.93 185.822609 
L 240 187.004348 
L 237.21 190.549565 
L 237.21 195.276522 
L 236.28 196.458261 
L 233.49 200.003478 
L 232.56 201.185217 
L 229.77 204.730435 
L 229.77 209.457391 
L 228.84 210.63913 
L 226.05 214.184348 
L 226.05 218.911304 
L 225.12 220.093043 
L 222.33 223.638261 
L 222.33 228.365217 
L 221.4 229.546957 
L 218.61 233.092174 
L 218.61 237.81913 
L 217.68 239.00087 
L 214.89 242.546087 
L 214.89 247.273043 
L 213.96 248.454783 
L 211.17 252 
L 212.1 252 
z
" style="fill:#3fbc73;fill-opacity:0.4;"/>
    <path clip-path="url(#p787a219f33)" d="M 55.395 48.74087 
L 55.395 44.013913 
L 57.72 41.059565 
L 59.115 39.286957 
L 61.44 36.332609 
L 62.835 34.56 
L 62.37 34.56 
L 61.44 35.741739 
L 58.65 39.286957 
L 57.72 40.468696 
L 54.93 44.013913 
L 54.93 48.74087 
L 54 49.922609 
L 54 50.513478 
z
" style="fill:#3fbc73;fill-opacity:0.4;"/>
    <path clip-path="url(#p787a219f33)" d="M 184.2 45.786522 
L 185.595 44.013913 
L 187.92 41.059565 
L 191.64 42.832174 
L 194.43 39.286957 
L 195.36 38.105217 
L 198.15 34.56 
L 197.22 34.56 
L 195.36 36.923478 
L 193.5 39.286957 
L 191.64 41.650435 
L 187.92 40.468696 
L 185.13 44.013913 
L 184.2 45.195652 
L 183.27 44.013913 
L 183.27 39.286957 
L 180.48 35.741739 
L 179.55 34.56 
L 179.085 34.56 
L 180.48 36.332609 
L 182.805 39.286957 
L 182.805 44.013913 
z
" style="fill:#3fbc73;fill-opacity:0.4;"/>
   </g>
   <g id="PathCollection_7">
    <path clip-path="url(#p787a219f33)" d="M 57.72 251.40913 
L 58.185 252 
L 58.65 252 
L 57.72 250.818261 
L 54.93 247.273043 
L 54 246.091304 
L 54 246.682174 
L 54.465 247.273043 
z
" style="fill:#84d44b;fill-opacity:0.4;"/>
    <path clip-path="url(#p787a219f33)" d="M 213.96 250.818261 
L 216.75 247.273043 
L 216.75 242.546087 
L 217.68 241.364348 
L 220.47 237.81913 
L 220.47 233.092174 
L 221.4 231.910435 
L 224.19 228.365217 
L 224.19 223.638261 
L 225.12 222.456522 
L 227.91 218.911304 
L 227.91 214.184348 
L 228.84 213.002609 
L 231.63 209.457391 
L 231.63 204.730435 
L 232.56 203.548696 
L 235.35 200.003478 
L 236.28 198.821739 
L 239.07 195.276522 
L 239.07 190.549565 
L 240 189.367826 
L 242.79 185.822609 
L 243.72 184.64087 
L 246.51 181.095652 
L 246.51 176.368696 
L 247.44 175.186957 
L 250.23 171.641739 
L 251.16 170.46 
L 253.95 166.914783 
L 253.95 162.187826 
L 254.88 161.006087 
L 257.67 157.46087 
L 258.6 156.27913 
L 261.39 152.733913 
L 261.39 148.006957 
L 262.32 146.825217 
L 265.11 143.28 
L 265.11 138.553043 
L 266.04 137.371304 
L 268.83 133.826087 
L 268.83 129.09913 
L 269.76 127.917391 
L 272.55 124.372174 
L 272.55 119.645217 
L 273.48 118.463478 
L 276.27 114.918261 
L 276.27 110.191304 
L 276.27 105.464348 
L 277.2 104.282609 
L 279.99 100.737391 
L 279.99 96.010435 
L 279.99 91.283478 
L 279.99 86.556522 
L 279.99 81.829565 
L 279.99 77.102609 
L 279.99 72.375652 
L 279.99 67.648696 
L 279.99 62.921739 
L 279.99 58.194783 
L 279.99 53.467826 
L 279.99 48.74087 
L 277.2 45.195652 
L 276.27 44.013913 
L 276.27 39.286957 
L 273.48 35.741739 
L 272.55 34.56 
L 271.62 34.56 
L 273.48 36.923478 
L 275.34 39.286957 
L 275.34 44.013913 
L 277.2 46.377391 
L 279.06 48.74087 
L 279.06 53.467826 
L 279.06 58.194783 
L 279.06 62.921739 
L 279.06 67.648696 
L 279.06 72.375652 
L 279.06 77.102609 
L 279.06 81.829565 
L 279.06 86.556522 
L 279.06 91.283478 
L 279.06 96.010435 
L 279.06 100.737391 
L 277.2 103.10087 
L 275.34 105.464348 
L 275.34 110.191304 
L 275.34 114.918261 
L 273.48 117.281739 
L 271.62 119.645217 
L 271.62 124.372174 
L 269.76 126.735652 
L 267.9 129.09913 
L 267.9 133.826087 
L 266.04 136.189565 
L 264.18 138.553043 
L 264.18 143.28 
L 262.32 145.643478 
L 260.46 148.006957 
L 260.46 152.733913 
L 258.6 155.097391 
L 256.74 157.46087 
L 254.88 159.824348 
L 253.02 162.187826 
L 253.02 166.914783 
L 251.16 169.278261 
L 249.3 171.641739 
L 247.44 174.005217 
L 245.58 176.368696 
L 245.58 181.095652 
L 243.72 183.45913 
L 241.86 185.822609 
L 240 188.186087 
L 238.14 190.549565 
L 238.14 195.276522 
L 236.28 197.64 
L 234.42 200.003478 
L 232.56 202.366957 
L 230.7 204.730435 
L 230.7 209.457391 
L 228.84 211.82087 
L 226.98 214.184348 
L 226.98 218.911304 
L 225.12 221.274783 
L 223.26 223.638261 
L 223.26 228.365217 
L 221.4 230.728696 
L 219.54 233.092174 
L 219.54 237.81913 
L 217.68 240.182609 
L 215.82 242.546087 
L 215.82 247.273043 
L 213.96 249.636522 
L 212.1 252 
L 213.03 252 
z
" style="fill:#84d44b;fill-opacity:0.4;"/>
    <path clip-path="url(#p787a219f33)" d="M 54.93 48.74087 
L 54.93 44.013913 
L 57.72 40.468696 
L 58.65 39.286957 
L 61.44 35.741739 
L 62.37 34.56 
L 61.905 34.56 
L 61.44 35.15087 
L 58.185 39.286957 
L 57.72 39.877826 
L 54.465 44.013913 
L 54.465 48.74087 
L 54 49.331739 
L 54 49.922609 
z
" style="fill:#84d44b;fill-opacity:0.4;"/>
    <path clip-path="url(#p787a219f33)" d="M 184.2 45.195652 
L 185.13 44.013913 
L 187.92 40.468696 
L 191.64 41.650435 
L 193.5 39.286957 
L 195.36 36.923478 
L 197.22 34.56 
L 196.29 34.56 
L 195.36 35.741739 
L 192.57 39.286957 
L 191.64 40.468696 
L 187.92 39.877826 
L 184.665 44.013913 
L 184.2 44.604783 
L 183.735 44.013913 
L 183.735 39.286957 
L 180.48 35.15087 
L 180.015 34.56 
L 179.55 34.56 
L 180.48 35.741739 
L 183.27 39.286957 
L 183.27 44.013913 
z
" style="fill:#84d44b;fill-opacity:0.4;"/>
   </g>
   <g id="PathCollection_8">
    <path clip-path="url(#p787a219f33)" d="M 57.72 252 
L 58.185 252 
L 57.72 251.40913 
L 54.465 247.273043 
L 54 246.682174 
L 54 247.273043 
L 54 252 
z
" style="fill:#d8e219;fill-opacity:0.4;"/>
    <path clip-path="url(#p787a219f33)" d="M 213.96 252 
L 217.68 252 
L 221.4 252 
L 225.12 252 
L 228.84 252 
L 232.56 252 
L 236.28 252 
L 240 252 
L 243.72 252 
L 247.44 252 
L 251.16 252 
L 254.88 252 
L 258.6 252 
L 262.32 252 
L 266.04 252 
L 269.76 252 
L 273.48 252 
L 277.2 252 
L 280.92 252 
L 284.64 252 
L 288.36 252 
L 292.08 252 
L 295.8 252 
L 299.52 252 
L 303.24 252 
L 306.96 252 
L 310.68 252 
L 314.4 252 
L 318.12 252 
L 321.84 252 
L 325.56 252 
L 329.28 252 
L 333 252 
L 336.72 252 
L 340.44 252 
L 344.16 252 
L 347.88 252 
L 351.6 252 
L 355.32 252 
L 359.04 252 
L 362.76 252 
L 366.48 252 
L 370.2 252 
L 373.92 252 
L 377.64 252 
L 381.36 252 
L 385.08 252 
L 388.8 252 
L 388.8 247.273043 
L 388.8 242.546087 
L 388.8 237.81913 
L 388.8 233.092174 
L 388.8 228.365217 
L 388.8 223.638261 
L 388.8 218.911304 
L 388.8 214.184348 
L 388.8 209.457391 
L 388.8 204.730435 
L 388.8 200.003478 
L 388.8 195.276522 
L 388.8 190.549565 
L 388.8 185.822609 
L 388.8 181.095652 
L 388.8 176.368696 
L 388.8 171.641739 
L 388.8 166.914783 
L 388.8 162.187826 
L 388.8 157.46087 
L 388.8 152.733913 
L 388.8 148.006957 
L 388.8 143.28 
L 388.8 138.553043 
L 388.8 133.826087 
L 388.8 129.09913 
L 388.8 124.372174 
L 388.8 119.645217 
L 388.8 114.918261 
L 388.8 110.191304 
L 388.8 105.464348 
L 388.8 100.737391 
L 388.8 96.010435 
L 388.8 91.283478 
L 388.8 86.556522 
L 388.8 81.829565 
L 388.8 77.102609 
L 388.8 72.375652 
L 388.8 67.648696 
L 388.8 62.921739 
L 388.8 58.194783 
L 388.8 53.467826 
L 388.8 48.74087 
L 388.8 44.013913 
L 388.8 39.286957 
L 388.8 34.56 
L 385.08 34.56 
L 381.36 34.56 
L 377.64 34.56 
L 373.92 34.56 
L 370.2 34.56 
L 366.48 34.56 
L 362.76 34.56 
L 359.04 34.56 
L 355.32 34.56 
L 351.6 34.56 
L 347.88 34.56 
L 344.16 34.56 
L 340.44 34.56 
L 336.72 34.56 
L 333 34.56 
L 329.28 34.56 
L 325.56 34.56 
L 321.84 34.56 
L 318.12 34.56 
L 314.4 34.56 
L 310.68 34.56 
L 306.96 34.56 
L 303.24 34.56 
L 299.52 34.56 
L 295.8 34.56 
L 292.08 34.56 
L 288.36 34.56 
L 284.64 34.56 
L 280.92 34.56 
L 277.2 34.56 
L 273.48 34.56 
L 272.55 34.56 
L 273.48 35.741739 
L 276.27 39.286957 
L 276.27 44.013913 
L 277.2 45.195652 
L 279.99 48.74087 
L 279.99 53.467826 
L 279.99 58.194783 
L 279.99 62.921739 
L 279.99 67.648696 
L 279.99 72.375652 
L 279.99 77.102609 
L 279.99 81.829565 
L 279.99 86.556522 
L 279.99 91.283478 
L 279.99 96.010435 
L 279.99 100.737391 
L 277.2 104.282609 
L 276.27 105.464348 
L 276.27 110.191304 
L 276.27 114.918261 
L 273.48 118.463478 
L 272.55 119.645217 
L 272.55 124.372174 
L 269.76 127.917391 
L 268.83 129.09913 
L 268.83 133.826087 
L 266.04 137.371304 
L 265.11 138.553043 
L 265.11 143.28 
L 262.32 146.825217 
L 261.39 148.006957 
L 261.39 152.733913 
L 258.6 156.27913 
L 257.67 157.46087 
L 254.88 161.006087 
L 253.95 162.187826 
L 253.95 166.914783 
L 251.16 170.46 
L 250.23 171.641739 
L 247.44 175.186957 
L 246.51 176.368696 
L 246.51 181.095652 
L 243.72 184.64087 
L 242.79 185.822609 
L 240 189.367826 
L 239.07 190.549565 
L 239.07 195.276522 
L 236.28 198.821739 
L 235.35 200.003478 
L 232.56 203.548696 
L 231.63 204.730435 
L 231.63 209.457391 
L 228.84 213.002609 
L 227.91 214.184348 
L 227.91 218.911304 
L 225.12 222.456522 
L 224.19 223.638261 
L 224.19 228.365217 
L 221.4 231.910435 
L 220.47 233.092174 
L 220.47 237.81913 
L 217.68 241.364348 
L 216.75 242.546087 
L 216.75 247.273043 
L 213.96 250.818261 
L 213.03 252 
z
" style="fill:#d8e219;fill-opacity:0.4;"/>
    <path clip-path="url(#p787a219f33)" d="M 54.465 48.74087 
L 54.465 44.013913 
L 57.72 39.877826 
L 58.185 39.286957 
L 61.44 35.15087 
L 61.905 34.56 
L 61.44 34.56 
L 57.72 34.56 
L 54 34.56 
L 54 39.286957 
L 54 44.013913 
L 54 48.74087 
L 54 49.331739 
z
" style="fill:#d8e219;fill-opacity:0.4;"/>
    <path clip-path="url(#p787a219f33)" d="M 184.2 44.604783 
L 184.665 44.013913 
L 187.92 39.877826 
L 191.64 40.468696 
L 192.57 39.286957 
L 195.36 35.741739 
L 196.29 34.56 
L 195.36 34.56 
L 191.64 34.56 
L 187.92 34.56 
L 184.2 34.56 
L 180.48 34.56 
L 180.015 34.56 
L 180.48 35.15087 
L 183.735 39.286957 
L 183.735 44.013913 
z
" style="fill:#d8e219;fill-opacity:0.4;"/>
   </g>
   <g id="PathCollection_9">
    <defs>
     <path d="M 0 3 
C 0.795609 3 1.55874 2.683901 2.12132 2.12132 
C 2.683901 1.55874 3 0.795609 3 0 
C 3 -0.795609 2.683901 -1.55874 2.12132 -2.12132 
C 1.55874 -2.683901 0.795609 -3 0 -3 
C -0.795609 -3 -1.55874 -2.683901 -2.12132 -2.12132 
C -2.683901 -1.55874 -3 -0.795609 -3 0 
C -3 0.795609 -2.683901 1.55874 -2.12132 2.12132 
C -1.55874 2.683901 -0.795609 3 0 3 
z
" id="C0_0_19c5108139"/>
    </defs>
    <g clip-path="url(#p787a219f33)">
     <use style="fill:#440154;fill-opacity:0.8;stroke:#440154;stroke-opacity:0.8;" x="111.276026" xlink:href="#C0_0_19c5108139" y="129.790758"/>
    </g>
    <g clip-path="url(#p787a219f33)">
     <use style="fill:#440154;fill-opacity:0.8;stroke:#440154;stroke-opacity:0.8;" x="110.159429" xlink:href="#C0_0_19c5108139" y="153.255298"/>
    </g>
    <g clip-path="url(#p787a219f33)">
     <use style="fill:#440154;fill-opacity:0.8;stroke:#440154;stroke-opacity:0.8;" x="103.65505" xlink:href="#C0_0_19c5108139" y="151.740223"/>
    </g>
    <g clip-path="url(#p787a219f33)">
     <use style="fill:#440154;fill-opacity:0.8;stroke:#440154;stroke-opacity:0.8;" x="108.998745" xlink:href="#C0_0_19c5108139" y="159.934381"/>
    </g>
    <g clip-path="url(#p787a219f33)">
     <use style="fill:#440154;fill-opacity:0.8;stroke:#440154;stroke-opacity:0.8;" x="109.617244" xlink:href="#C0_0_19c5108139" y="129.442983"/>
    </g>
    <g clip-path="url(#p787a219f33)">
     <use style="fill:#440154;fill-opacity:0.8;stroke:#440154;stroke-opacity:0.8;" x="126.277521" xlink:href="#C0_0_19c5108139" y="109.846159"/>
    </g>
    <g clip-path="url(#p787a219f33)">
     <use style="fill:#440154;fill-opacity:0.8;stroke:#440154;stroke-opacity:0.8;" x="106.201495" xlink:href="#C0_0_19c5108139" y="149.117328"/>
    </g>
    <g clip-path="url(#p787a219f33)">
     <use style="fill:#440154;fill-opacity:0.8;stroke:#440154;stroke-opacity:0.8;" x="113.432906" xlink:href="#C0_0_19c5108139" y="137.165391"/>
    </g>
    <g clip-path="url(#p787a219f33)">
     <use style="fill:#440154;fill-opacity:0.8;stroke:#440154;stroke-opacity:0.8;" x="103.752062" xlink:href="#C0_0_19c5108139" y="172.225072"/>
    </g>
    <g clip-path="url(#p787a219f33)">
     <use style="fill:#440154;fill-opacity:0.8;stroke:#440154;stroke-opacity:0.8;" x="111.698984" xlink:href="#C0_0_19c5108139" y="150.266586"/>
    </g>
    <g clip-path="url(#p787a219f33)">
     <use style="fill:#440154;fill-opacity:0.8;stroke:#440154;stroke-opacity:0.8;" x="117.867067" xlink:href="#C0_0_19c5108139" y="114.396401"/>
    </g>
    <g clip-path="url(#p787a219f33)">
     <use style="fill:#440154;fill-opacity:0.8;stroke:#440154;stroke-opacity:0.8;" x="113.931005" xlink:href="#C0_0_19c5108139" y="144.192249"/>
    </g>
    <g clip-path="url(#p787a219f33)">
     <use style="fill:#440154;fill-opacity:0.8;stroke:#440154;stroke-opacity:0.8;" x="107.482235" xlink:href="#C0_0_19c5108139" y="156.002169"/>
    </g>
    <g clip-path="url(#p787a219f33)">
     <use style="fill:#440154;fill-opacity:0.8;stroke:#440154;stroke-opacity:0.8;" x="91.2" xlink:href="#C0_0_19c5108139" y="169.061927"/>
    </g>
    <g clip-path="url(#p787a219f33)">
     <use style="fill:#440154;fill-opacity:0.8;stroke:#440154;stroke-opacity:0.8;" x="112.740785" xlink:href="#C0_0_19c5108139" y="89.168835"/>
    </g>
    <g clip-path="url(#p787a219f33)">
     <use style="fill:#440154;fill-opacity:0.8;stroke:#440154;stroke-opacity:0.8;" x="122.364847" xlink:href="#C0_0_19c5108139" y="81.638902"/>
    </g>
    <g clip-path="url(#p787a219f33)">
     <use style="fill:#440154;fill-opacity:0.8;stroke:#440154;stroke-opacity:0.8;" x="113.530262" xlink:href="#C0_0_19c5108139" y="106.568059"/>
    </g>
    <g clip-path="url(#p787a219f33)">
     <use style="fill:#440154;fill-opacity:0.8;stroke:#440154;stroke-opacity:0.8;" x="112.608862" xlink:href="#C0_0_19c5108139" y="130.147554"/>
    </g>
    <g clip-path="url(#p787a219f33)">
     <use style="fill:#440154;fill-opacity:0.8;stroke:#440154;stroke-opacity:0.8;" x="129.292183" xlink:href="#C0_0_19c5108139" y="103.629805"/>
    </g>
    <g clip-path="url(#p787a219f33)">
     <use style="fill:#440154;fill-opacity:0.8;stroke:#440154;stroke-opacity:0.8;" x="114.852405" xlink:href="#C0_0_19c5108139" y="120.612755"/>
    </g>
    <g clip-path="url(#p787a219f33)">
     <use style="fill:#440154;fill-opacity:0.8;stroke:#440154;stroke-opacity:0.8;" x="125.183968" xlink:href="#C0_0_19c5108139" y="126.389775"/>
    </g>
    <g clip-path="url(#p787a219f33)">
     <use style="fill:#440154;fill-opacity:0.8;stroke:#440154;stroke-opacity:0.8;" x="116.499665" xlink:href="#C0_0_19c5108139" y="124.420991"/>
    </g>
    <g clip-path="url(#p787a219f33)">
     <use style="fill:#440154;fill-opacity:0.8;stroke:#440154;stroke-opacity:0.8;" x="91.492553" xlink:href="#C0_0_19c5108139" y="138.579549"/>
    </g>
    <g clip-path="url(#p787a219f33)">
     <use style="fill:#440154;fill-opacity:0.8;stroke:#440154;stroke-opacity:0.8;" x="125.463825" xlink:href="#C0_0_19c5108139" y="140.222602"/>
    </g>
    <g clip-path="url(#p787a219f33)">
     <use style="fill:#440154;fill-opacity:0.8;stroke:#440154;stroke-opacity:0.8;" x="123.491449" xlink:href="#C0_0_19c5108139" y="146.650824"/>
    </g>
    <g clip-path="url(#p787a219f33)">
     <use style="fill:#440154;fill-opacity:0.8;stroke:#440154;stroke-opacity:0.8;" x="117.877416" xlink:href="#C0_0_19c5108139" y="151.790681"/>
    </g>
    <g clip-path="url(#p787a219f33)">
     <use style="fill:#440154;fill-opacity:0.8;stroke:#440154;stroke-opacity:0.8;" x="119.285393" xlink:href="#C0_0_19c5108139" y="138.698507"/>
    </g>
    <g clip-path="url(#p787a219f33)">
     <use style="fill:#440154;fill-opacity:0.8;stroke:#440154;stroke-opacity:0.8;" x="115.807199" xlink:href="#C0_0_19c5108139" y="127.506617"/>
    </g>
    <g clip-path="url(#p787a219f33)">
     <use style="fill:#440154;fill-opacity:0.8;stroke:#440154;stroke-opacity:0.8;" x="112.934808" xlink:href="#C0_0_19c5108139" y="130.138533"/>
    </g>
    <g clip-path="url(#p787a219f33)">
     <use style="fill:#440154;fill-opacity:0.8;stroke:#440154;stroke-opacity:0.8;" x="113.215494" xlink:href="#C0_0_19c5108139" y="154.198798"/>
    </g>
    <g clip-path="url(#p787a219f33)">
     <use style="fill:#440154;fill-opacity:0.8;stroke:#440154;stroke-opacity:0.8;" x="114.874276" xlink:href="#C0_0_19c5108139" y="154.546573"/>
    </g>
    <g clip-path="url(#p787a219f33)">
     <use style="fill:#440154;fill-opacity:0.8;stroke:#440154;stroke-opacity:0.8;" x="121.47601" xlink:href="#C0_0_19c5108139" y="125.464316"/>
    </g>
    <g clip-path="url(#p787a219f33)">
     <use style="fill:#440154;fill-opacity:0.8;stroke:#440154;stroke-opacity:0.8;" x="112.58782" xlink:href="#C0_0_19c5108139" y="106.441173"/>
    </g>
    <g clip-path="url(#p787a219f33)">
     <use style="fill:#440154;fill-opacity:0.8;stroke:#440154;stroke-opacity:0.8;" x="114.452492" xlink:href="#C0_0_19c5108139" y="93.216002"/>
    </g>
    <g clip-path="url(#p787a219f33)">
     <use style="fill:#440154;fill-opacity:0.8;stroke:#440154;stroke-opacity:0.8;" x="113.031819" xlink:href="#C0_0_19c5108139" y="150.623382"/>
    </g>
    <g clip-path="url(#p787a219f33)">
     <use style="fill:#440154;fill-opacity:0.8;stroke:#440154;stroke-opacity:0.8;" x="104.50131" xlink:href="#C0_0_19c5108139" y="141.609699"/>
    </g>
    <g clip-path="url(#p787a219f33)">
     <use style="fill:#440154;fill-opacity:0.8;stroke:#440154;stroke-opacity:0.8;" x="113.466644" xlink:href="#C0_0_19c5108139" y="116.556567"/>
    </g>
    <g clip-path="url(#p787a219f33)">
     <use style="fill:#440154;fill-opacity:0.8;stroke:#440154;stroke-opacity:0.8;" x="106.94005" xlink:href="#C0_0_19c5108139" y="132.189854"/>
    </g>
    <g clip-path="url(#p787a219f33)">
     <use style="fill:#440154;fill-opacity:0.8;stroke:#440154;stroke-opacity:0.8;" x="100.250823" xlink:href="#C0_0_19c5108139" y="167.954106"/>
    </g>
    <g clip-path="url(#p787a219f33)">
     <use style="fill:#440154;fill-opacity:0.8;stroke:#440154;stroke-opacity:0.8;" x="114.777264" xlink:href="#C0_0_19c5108139" y="134.061724"/>
    </g>
    <g clip-path="url(#p787a219f33)">
     <use style="fill:#440154;fill-opacity:0.8;stroke:#440154;stroke-opacity:0.8;" x="108.077689" xlink:href="#C0_0_19c5108139" y="132.431695"/>
    </g>
    <g clip-path="url(#p787a219f33)">
     <use style="fill:#440154;fill-opacity:0.8;stroke:#440154;stroke-opacity:0.8;" x="105.128983" xlink:href="#C0_0_19c5108139" y="189.367324"/>
    </g>
    <g clip-path="url(#p787a219f33)">
     <use style="fill:#440154;fill-opacity:0.8;stroke:#440154;stroke-opacity:0.8;" x="99.621976" xlink:href="#C0_0_19c5108139" y="161.051223"/>
    </g>
    <g clip-path="url(#p787a219f33)">
     <use style="fill:#440154;fill-opacity:0.8;stroke:#440154;stroke-opacity:0.8;" x="121.63664" xlink:href="#C0_0_19c5108139" y="135.960657"/>
    </g>
    <g clip-path="url(#p787a219f33)">
     <use style="fill:#440154;fill-opacity:0.8;stroke:#440154;stroke-opacity:0.8;" x="128.9325" xlink:href="#C0_0_19c5108139" y="124.24765"/>
    </g>
    <g clip-path="url(#p787a219f33)">
     <use style="fill:#440154;fill-opacity:0.8;stroke:#440154;stroke-opacity:0.8;" x="110.147906" xlink:href="#C0_0_19c5108139" y="156.71576"/>
    </g>
    <g clip-path="url(#p787a219f33)">
     <use style="fill:#440154;fill-opacity:0.8;stroke:#440154;stroke-opacity:0.8;" x="116.706384" xlink:href="#C0_0_19c5108139" y="121.075484"/>
    </g>
    <g clip-path="url(#p787a219f33)">
     <use style="fill:#440154;fill-opacity:0.8;stroke:#440154;stroke-opacity:0.8;" x="105.497507" xlink:href="#C0_0_19c5108139" y="155.663415"/>
    </g>
    <g clip-path="url(#p787a219f33)">
     <use style="fill:#440154;fill-opacity:0.8;stroke:#440154;stroke-opacity:0.8;" x="116.522709" xlink:href="#C0_0_19c5108139" y="117.500067"/>
    </g>
    <g clip-path="url(#p787a219f33)">
     <use style="fill:#440154;fill-opacity:0.8;stroke:#440154;stroke-opacity:0.8;" x="110.560515" xlink:href="#C0_0_19c5108139" y="139.797307"/>
    </g>
    <g clip-path="url(#p787a219f33)">
     <use style="fill:#21918c;fill-opacity:0.8;stroke:#21918c;stroke-opacity:0.8;" x="258.921015" xlink:href="#C0_0_19c5108139" y="112.501289"/>
    </g>
    <g clip-path="url(#p787a219f33)">
     <use style="fill:#21918c;fill-opacity:0.8;stroke:#21918c;stroke-opacity:0.8;" x="245.814073" xlink:href="#C0_0_19c5108139" y="129.841034"/>
    </g>
    <g clip-path="url(#p787a219f33)">
     <use style="fill:#21918c;fill-opacity:0.8;stroke:#21918c;stroke-opacity:0.8;" x="265.597546" xlink:href="#C0_0_19c5108139" y="121.052243"/>
    </g>
    <g clip-path="url(#p787a219f33)">
     <use style="fill:#21918c;fill-opacity:0.8;stroke:#21918c;stroke-opacity:0.8;" x="217.944918" xlink:href="#C0_0_19c5108139" y="184.02579"/>
    </g>
    <g clip-path="url(#p787a219f33)">
     <use style="fill:#21918c;fill-opacity:0.8;stroke:#21918c;stroke-opacity:0.8;" x="251.60294" xlink:href="#C0_0_19c5108139" y="141.362658"/>
    </g>
    <g clip-path="url(#p787a219f33)">
     <use style="fill:#21918c;fill-opacity:0.8;stroke:#21918c;stroke-opacity:0.8;" x="234.995589" xlink:href="#C0_0_19c5108139" y="164.658875"/>
    </g>
    <g clip-path="url(#p787a219f33)">
     <use style="fill:#21918c;fill-opacity:0.8;stroke:#21918c;stroke-opacity:0.8;" x="251.861756" xlink:href="#C0_0_19c5108139" y="131.489105"/>
    </g>
    <g clip-path="url(#p787a219f33)">
     <use style="fill:#21918c;fill-opacity:0.8;stroke:#21918c;stroke-opacity:0.8;" x="183.258136" xlink:href="#C0_0_19c5108139" y="192.389286"/>
    </g>
    <g clip-path="url(#p787a219f33)">
     <use style="fill:#21918c;fill-opacity:0.8;stroke:#21918c;stroke-opacity:0.8;" x="249.967203" xlink:href="#C0_0_19c5108139" y="134.093959"/>
    </g>
    <g clip-path="url(#p787a219f33)">
     <use style="fill:#21918c;fill-opacity:0.8;stroke:#21918c;stroke-opacity:0.8;" x="210.80017" xlink:href="#C0_0_19c5108139" y="179.068294"/>
    </g>
    <g clip-path="url(#p787a219f33)">
     <use style="fill:#21918c;fill-opacity:0.8;stroke:#21918c;stroke-opacity:0.8;" x="192.233818" xlink:href="#C0_0_19c5108139" y="204.730435"/>
    </g>
    <g clip-path="url(#p787a219f33)">
     <use style="fill:#21918c;fill-opacity:0.8;stroke:#21918c;stroke-opacity:0.8;" x="230.160686" xlink:href="#C0_0_19c5108139" y="149.803675"/>
    </g>
    <g clip-path="url(#p787a219f33)">
     <use style="fill:#21918c;fill-opacity:0.8;stroke:#21918c;stroke-opacity:0.8;" x="220.982625" xlink:href="#C0_0_19c5108139" y="170.888512"/>
    </g>
    <g clip-path="url(#p787a219f33)">
     <use style="fill:#21918c;fill-opacity:0.8;stroke:#21918c;stroke-opacity:0.8;" x="247.765063" xlink:href="#C0_0_19c5108139" y="150.788613"/>
    </g>
    <g clip-path="url(#p787a219f33)">
     <use style="fill:#21918c;fill-opacity:0.8;stroke:#21918c;stroke-opacity:0.8;" x="204.655475" xlink:href="#C0_0_19c5108139" y="156.935375"/>
    </g>
    <g clip-path="url(#p787a219f33)">
     <use style="fill:#21918c;fill-opacity:0.8;stroke:#21918c;stroke-opacity:0.8;" x="245.64192" xlink:href="#C0_0_19c5108139" y="122.805155"/>
    </g>
    <g clip-path="url(#p787a219f33)">
     <use style="fill:#21918c;fill-opacity:0.8;stroke:#21918c;stroke-opacity:0.8;" x="235.688055" xlink:href="#C0_0_19c5108139" y="161.57325"/>
    </g>
    <g clip-path="url(#p787a219f33)">
     <use style="fill:#21918c;fill-opacity:0.8;stroke:#21918c;stroke-opacity:0.8;" x="219.908605" xlink:href="#C0_0_19c5108139" y="160.658163"/>
    </g>
    <g clip-path="url(#p787a219f33)">
     <use style="fill:#21918c;fill-opacity:0.8;stroke:#21918c;stroke-opacity:0.8;" x="246.269594" xlink:href="#C0_0_19c5108139" y="170.562781"/>
    </g>
    <g clip-path="url(#p787a219f33)">
     <use style="fill:#21918c;fill-opacity:0.8;stroke:#21918c;stroke-opacity:0.8;" x="212.807943" xlink:href="#C0_0_19c5108139" y="172.486124"/>
    </g>
    <g clip-path="url(#p787a219f33)">
     <use style="fill:#21918c;fill-opacity:0.8;stroke:#21918c;stroke-opacity:0.8;" x="252.651233" xlink:href="#C0_0_19c5108139" y="148.888329"/>
    </g>
    <g clip-path="url(#p787a219f33)">
     <use style="fill:#21918c;fill-opacity:0.8;stroke:#21918c;stroke-opacity:0.8;" x="224.438948" xlink:href="#C0_0_19c5108139" y="148.146583"/>
    </g>
    <g clip-path="url(#p787a219f33)">
     <use style="fill:#21918c;fill-opacity:0.8;stroke:#21918c;stroke-opacity:0.8;" x="259.417939" xlink:href="#C0_0_19c5108139" y="160.382891"/>
    </g>
    <g clip-path="url(#p787a219f33)">
     <use style="fill:#21918c;fill-opacity:0.8;stroke:#21918c;stroke-opacity:0.8;" x="245.413815" xlink:href="#C0_0_19c5108139" y="153.526463"/>
    </g>
    <g clip-path="url(#p787a219f33)">
     <use style="fill:#21918c;fill-opacity:0.8;stroke:#21918c;stroke-opacity:0.8;" x="237.718043" xlink:href="#C0_0_19c5108139" y="137.842717"/>
    </g>
    <g clip-path="url(#p787a219f33)">
     <use style="fill:#21918c;fill-opacity:0.8;stroke:#21918c;stroke-opacity:0.8;" x="244.611986" xlink:href="#C0_0_19c5108139" y="129.360263"/>
    </g>
    <g clip-path="url(#p787a219f33)">
     <use style="fill:#21918c;fill-opacity:0.8;stroke:#21918c;stroke-opacity:0.8;" x="260.676808" xlink:href="#C0_0_19c5108139" y="133.333913"/>
    </g>
    <g clip-path="url(#p787a219f33)">
     <use style="fill:#21918c;fill-opacity:0.8;stroke:#21918c;stroke-opacity:0.8;" x="269.075739" xlink:href="#C0_0_19c5108139" y="132.244134"/>
    </g>
    <g clip-path="url(#p787a219f33)">
     <use style="fill:#21918c;fill-opacity:0.8;stroke:#21918c;stroke-opacity:0.8;" x="241.379911" xlink:href="#C0_0_19c5108139" y="152.610025"/>
    </g>
    <g clip-path="url(#p787a219f33)">
     <use style="fill:#21918c;fill-opacity:0.8;stroke:#21918c;stroke-opacity:0.8;" x="199.757783" xlink:href="#C0_0_19c5108139" y="162.296121"/>
    </g>
    <g clip-path="url(#p787a219f33)">
     <use style="fill:#21918c;fill-opacity:0.8;stroke:#21918c;stroke-opacity:0.8;" x="208.591194" xlink:href="#C0_0_19c5108139" y="178.221707"/>
    </g>
    <g clip-path="url(#p787a219f33)">
     <use style="fill:#21918c;fill-opacity:0.8;stroke:#21918c;stroke-opacity:0.8;" x="204.071543" xlink:href="#C0_0_19c5108139" y="177.045387"/>
    </g>
    <g clip-path="url(#p787a219f33)">
     <use style="fill:#21918c;fill-opacity:0.8;stroke:#21918c;stroke-opacity:0.8;" x="216.200647" xlink:href="#C0_0_19c5108139" y="159.732704"/>
    </g>
    <g clip-path="url(#p787a219f33)">
     <use style="fill:#21918c;fill-opacity:0.8;stroke:#21918c;stroke-opacity:0.8;" x="262.462483" xlink:href="#C0_0_19c5108139" y="164.786853"/>
    </g>
    <g clip-path="url(#p787a219f33)">
     <use style="fill:#21918c;fill-opacity:0.8;stroke:#21918c;stroke-opacity:0.8;" x="232.999339" xlink:href="#C0_0_19c5108139" y="167.780583"/>
    </g>
    <g clip-path="url(#p787a219f33)">
     <use style="fill:#21918c;fill-opacity:0.8;stroke:#21918c;stroke-opacity:0.8;" x="241.140628" xlink:href="#C0_0_19c5108139" y="135.709613"/>
    </g>
    <g clip-path="url(#p787a219f33)">
     <use style="fill:#21918c;fill-opacity:0.8;stroke:#21918c;stroke-opacity:0.8;" x="256.5352" xlink:href="#C0_0_19c5108139" y="125.620526"/>
    </g>
    <g clip-path="url(#p787a219f33)">
     <use style="fill:#21918c;fill-opacity:0.8;stroke:#21918c;stroke-opacity:0.8;" x="241.447042" xlink:href="#C0_0_19c5108139" y="162.474557"/>
    </g>
    <g clip-path="url(#p787a219f33)">
     <use style="fill:#21918c;fill-opacity:0.8;stroke:#21918c;stroke-opacity:0.8;" x="220.275125" xlink:href="#C0_0_19c5108139" y="157.581559"/>
    </g>
    <g clip-path="url(#p787a219f33)">
     <use style="fill:#21918c;fill-opacity:0.8;stroke:#21918c;stroke-opacity:0.8;" x="217.316071" xlink:href="#C0_0_19c5108139" y="177.122907"/>
    </g>
    <g clip-path="url(#p787a219f33)">
     <use style="fill:#21918c;fill-opacity:0.8;stroke:#21918c;stroke-opacity:0.8;" x="228.41607" xlink:href="#C0_0_19c5108139" y="176.59277"/>
    </g>
    <g clip-path="url(#p787a219f33)">
     <use style="fill:#21918c;fill-opacity:0.8;stroke:#21918c;stroke-opacity:0.8;" x="244.263825" xlink:href="#C0_0_19c5108139" y="146.517646"/>
    </g>
    <g clip-path="url(#p787a219f33)">
     <use style="fill:#21918c;fill-opacity:0.8;stroke:#21918c;stroke-opacity:0.8;" x="219.701886" xlink:href="#C0_0_19c5108139" y="164.00367"/>
    </g>
    <g clip-path="url(#p787a219f33)">
     <use style="fill:#21918c;fill-opacity:0.8;stroke:#21918c;stroke-opacity:0.8;" x="184.916918" xlink:href="#C0_0_19c5108139" y="192.737061"/>
    </g>
    <g clip-path="url(#p787a219f33)">
     <use style="fill:#21918c;fill-opacity:0.8;stroke:#21918c;stroke-opacity:0.8;" x="224.405211" xlink:href="#C0_0_19c5108139" y="168.755408"/>
    </g>
    <g clip-path="url(#p787a219f33)">
     <use style="fill:#21918c;fill-opacity:0.8;stroke:#21918c;stroke-opacity:0.8;" x="223.473462" xlink:href="#C0_0_19c5108139" y="154.940621"/>
    </g>
    <g clip-path="url(#p787a219f33)">
     <use style="fill:#21918c;fill-opacity:0.8;stroke:#21918c;stroke-opacity:0.8;" x="225.120721" xlink:href="#C0_0_19c5108139" y="158.748858"/>
    </g>
    <g clip-path="url(#p787a219f33)">
     <use style="fill:#21918c;fill-opacity:0.8;stroke:#21918c;stroke-opacity:0.8;" x="235.029327" xlink:href="#C0_0_19c5108139" y="144.05005"/>
    </g>
    <g clip-path="url(#p787a219f33)">
     <use style="fill:#21918c;fill-opacity:0.8;stroke:#21918c;stroke-opacity:0.8;" x="177.40482" xlink:href="#C0_0_19c5108139" y="180.628732"/>
    </g>
    <g clip-path="url(#p787a219f33)">
     <use style="fill:#21918c;fill-opacity:0.8;stroke:#21918c;stroke-opacity:0.8;" x="222.248331" xlink:href="#C0_0_19c5108139" y="161.380775"/>
    </g>
    <g clip-path="url(#p787a219f33)">
     <use style="fill:#fde725;fill-opacity:0.8;stroke:#fde725;stroke-opacity:0.8;" x="305.285869" xlink:href="#C0_0_19c5108139" y="145.35409"/>
    </g>
    <g clip-path="url(#p787a219f33)">
     <use style="fill:#fde725;fill-opacity:0.8;stroke:#fde725;stroke-opacity:0.8;" x="263.772274" xlink:href="#C0_0_19c5108139" y="172.064573"/>
    </g>
    <g clip-path="url(#p787a219f33)">
     <use style="fill:#fde725;fill-opacity:0.8;stroke:#fde725;stroke-opacity:0.8;" x="308.465847" xlink:href="#C0_0_19c5108139" y="128.632375"/>
    </g>
    <g clip-path="url(#p787a219f33)">
     <use style="fill:#fde725;fill-opacity:0.8;stroke:#fde725;stroke-opacity:0.8;" x="284.466454" xlink:href="#C0_0_19c5108139" y="153.384187"/>
    </g>
    <g clip-path="url(#p787a219f33)">
     <use style="fill:#fde725;fill-opacity:0.8;stroke:#fde725;stroke-opacity:0.8;" x="298.545719" xlink:href="#C0_0_19c5108139" y="146.791644"/>
    </g>
    <g clip-path="url(#p787a219f33)">
     <use style="fill:#fde725;fill-opacity:0.8;stroke:#fde725;stroke-opacity:0.8;" x="337.49534" xlink:href="#C0_0_19c5108139" y="118.850717"/>
    </g>
    <g clip-path="url(#p787a219f33)">
     <use style="fill:#fde725;fill-opacity:0.8;stroke:#fde725;stroke-opacity:0.8;" x="230.515339" xlink:href="#C0_0_19c5108139" y="201.269713"/>
    </g>
    <g clip-path="url(#p787a219f33)">
     <use style="fill:#fde725;fill-opacity:0.8;stroke:#fde725;stroke-opacity:0.8;" x="320.217738" xlink:href="#C0_0_19c5108139" y="128.084196"/>
    </g>
    <g clip-path="url(#p787a219f33)">
     <use style="fill:#fde725;fill-opacity:0.8;stroke:#fde725;stroke-opacity:0.8;" x="297.475211" xlink:href="#C0_0_19c5108139" y="156.414336"/>
    </g>
    <g clip-path="url(#p787a219f33)">
     <use style="fill:#fde725;fill-opacity:0.8;stroke:#fde725;stroke-opacity:0.8;" x="319.628635" xlink:href="#C0_0_19c5108139" y="107.886292"/>
    </g>
    <g clip-path="url(#p787a219f33)">
     <use style="fill:#fde725;fill-opacity:0.8;stroke:#fde725;stroke-opacity:0.8;" x="272.943498" xlink:href="#C0_0_19c5108139" y="133.438496"/>
    </g>
    <g clip-path="url(#p787a219f33)">
     <use style="fill:#fde725;fill-opacity:0.8;stroke:#fde725;stroke-opacity:0.8;" x="278.212052" xlink:href="#C0_0_19c5108139" y="155.081623"/>
    </g>
    <g clip-path="url(#p787a219f33)">
     <use style="fill:#fde725;fill-opacity:0.8;stroke:#fde725;stroke-opacity:0.8;" x="291.685514" xlink:href="#C0_0_19c5108139" y="134.665274"/>
    </g>
    <g clip-path="url(#p787a219f33)">
     <use style="fill:#fde725;fill-opacity:0.8;stroke:#fde725;stroke-opacity:0.8;" x="261.202784" xlink:href="#C0_0_19c5108139" y="181.608393"/>
    </g>
    <g clip-path="url(#p787a219f33)">
     <use style="fill:#fde725;fill-opacity:0.8;stroke:#fde725;stroke-opacity:0.8;" x="270.122029" xlink:href="#C0_0_19c5108139" y="170.397109"/>
    </g>
    <g clip-path="url(#p787a219f33)">
     <use style="fill:#fde725;fill-opacity:0.8;stroke:#fde725;stroke-opacity:0.8;" x="281.971276" xlink:href="#C0_0_19c5108139" y="139.251599"/>
    </g>
    <g clip-path="url(#p787a219f33)">
     <use style="fill:#fde725;fill-opacity:0.8;stroke:#fde725;stroke-opacity:0.8;" x="283.653932" xlink:href="#C0_0_19c5108139" y="142.905887"/>
    </g>
    <g clip-path="url(#p787a219f33)">
     <use style="fill:#fde725;fill-opacity:0.8;stroke:#fde725;stroke-opacity:0.8;" x="340.843959" xlink:href="#C0_0_19c5108139" y="89.31184"/>
    </g>
    <g clip-path="url(#p787a219f33)">
     <use style="fill:#fde725;fill-opacity:0.8;stroke:#fde725;stroke-opacity:0.8;" x="352.323509" xlink:href="#C0_0_19c5108139" y="132.724982"/>
    </g>
    <g clip-path="url(#p787a219f33)">
     <use style="fill:#fde725;fill-opacity:0.8;stroke:#fde725;stroke-opacity:0.8;" x="259.514951" xlink:href="#C0_0_19c5108139" y="180.867739"/>
    </g>
    <g clip-path="url(#p787a219f33)">
     <use style="fill:#fde725;fill-opacity:0.8;stroke:#fde725;stroke-opacity:0.8;" x="301.440326" xlink:href="#C0_0_19c5108139" y="127.011366"/>
    </g>
    <g clip-path="url(#p787a219f33)">
     <use style="fill:#fde725;fill-opacity:0.8;stroke:#fde725;stroke-opacity:0.8;" x="255.72834" xlink:href="#C0_0_19c5108139" y="173.53821"/>
    </g>
    <g clip-path="url(#p787a219f33)">
     <use style="fill:#fde725;fill-opacity:0.8;stroke:#fde725;stroke-opacity:0.8;" x="341.322525" xlink:href="#C0_0_19c5108139" y="123.112663"/>
    </g>
    <g clip-path="url(#p787a219f33)">
     <use style="fill:#fde725;fill-opacity:0.8;stroke:#fde725;stroke-opacity:0.8;" x="262.787599" xlink:href="#C0_0_19c5108139" y="154.550394"/>
    </g>
    <g clip-path="url(#p787a219f33)">
     <use style="fill:#fde725;fill-opacity:0.8;stroke:#fde725;stroke-opacity:0.8;" x="295.771514" xlink:href="#C0_0_19c5108139" y="129.053667"/>
    </g>
    <g clip-path="url(#p787a219f33)">
     <use style="fill:#fde725;fill-opacity:0.8;stroke:#fde725;stroke-opacity:0.8;" x="308.369665" xlink:href="#C0_0_19c5108139" y="118.374964"/>
    </g>
    <g clip-path="url(#p787a219f33)">
     <use style="fill:#fde725;fill-opacity:0.8;stroke:#fde725;stroke-opacity:0.8;" x="257.942003" xlink:href="#C0_0_19c5108139" y="153.383095"/>
    </g>
    <g clip-path="url(#p787a219f33)">
     <use style="fill:#fde725;fill-opacity:0.8;stroke:#fde725;stroke-opacity:0.8;" x="259.155612" xlink:href="#C0_0_19c5108139" y="150.403403"/>
    </g>
    <g clip-path="url(#p787a219f33)">
     <use style="fill:#fde725;fill-opacity:0.8;stroke:#fde725;stroke-opacity:0.8;" x="290.123744" xlink:href="#C0_0_19c5108139" y="154.802348"/>
    </g>
    <g clip-path="url(#p787a219f33)">
     <use style="fill:#fde725;fill-opacity:0.8;stroke:#fde725;stroke-opacity:0.8;" x="299.959211" xlink:href="#C0_0_19c5108139" y="122.925205"/>
    </g>
    <g clip-path="url(#p787a219f33)">
     <use style="fill:#fde725;fill-opacity:0.8;stroke:#fde725;stroke-opacity:0.8;" x="316.835727" xlink:href="#C0_0_19c5108139" y="127.149717"/>
    </g>
    <g clip-path="url(#p787a219f33)">
     <use style="fill:#fde725;fill-opacity:0.8;stroke:#fde725;stroke-opacity:0.8;" x="331.306559" xlink:href="#C0_0_19c5108139" y="79.932341"/>
    </g>
    <g clip-path="url(#p787a219f33)">
     <use style="fill:#fde725;fill-opacity:0.8;stroke:#fde725;stroke-opacity:0.8;" x="291.45658" xlink:href="#C0_0_19c5108139" y="155.159144"/>
    </g>
    <g clip-path="url(#p787a219f33)">
     <use style="fill:#fde725;fill-opacity:0.8;stroke:#fde725;stroke-opacity:0.8;" x="264.848297" xlink:href="#C0_0_19c5108139" y="151.667617"/>
    </g>
    <g clip-path="url(#p787a219f33)">
     <use style="fill:#fde725;fill-opacity:0.8;stroke:#fde725;stroke-opacity:0.8;" x="277.389666" xlink:href="#C0_0_19c5108139" y="168.518662"/>
    </g>
    <g clip-path="url(#p787a219f33)">
     <use style="fill:#fde725;fill-opacity:0.8;stroke:#fde725;stroke-opacity:0.8;" x="325.571297" xlink:href="#C0_0_19c5108139" y="112.363016"/>
    </g>
    <g clip-path="url(#p787a219f33)">
     <use style="fill:#fde725;fill-opacity:0.8;stroke:#fde725;stroke-opacity:0.8;" x="290.891351" xlink:href="#C0_0_19c5108139" y="138.267753"/>
    </g>
    <g clip-path="url(#p787a219f33)">
     <use style="fill:#fde725;fill-opacity:0.8;stroke:#fde725;stroke-opacity:0.8;" x="281.99515" xlink:href="#C0_0_19c5108139" y="142.558113"/>
    </g>
    <g clip-path="url(#p787a219f33)">
     <use style="fill:#fde725;fill-opacity:0.8;stroke:#fde725;stroke-opacity:0.8;" x="254.624439" xlink:href="#C0_0_19c5108139" y="152.687545"/>
    </g>
    <g clip-path="url(#p787a219f33)">
     <use style="fill:#fde725;fill-opacity:0.8;stroke:#fde725;stroke-opacity:0.8;" x="289.528634" xlink:href="#C0_0_19c5108139" y="127.290641"/>
    </g>
    <g clip-path="url(#p787a219f33)">
     <use style="fill:#fde725;fill-opacity:0.8;stroke:#fde725;stroke-opacity:0.8;" x="297.212054" xlink:href="#C0_0_19c5108139" y="136.207411"/>
    </g>
    <g clip-path="url(#p787a219f33)">
     <use style="fill:#fde725;fill-opacity:0.8;stroke:#fde725;stroke-opacity:0.8;" x="282.633861" xlink:href="#C0_0_19c5108139" y="125.545657"/>
    </g>
    <g clip-path="url(#p787a219f33)">
     <use style="fill:#fde725;fill-opacity:0.8;stroke:#fde725;stroke-opacity:0.8;" x="263.772274" xlink:href="#C0_0_19c5108139" y="172.064573"/>
    </g>
    <g clip-path="url(#p787a219f33)">
     <use style="fill:#fde725;fill-opacity:0.8;stroke:#fde725;stroke-opacity:0.8;" x="306.469597" xlink:href="#C0_0_19c5108139" y="131.754083"/>
    </g>
    <g clip-path="url(#p787a219f33)">
     <use style="fill:#fde725;fill-opacity:0.8;stroke:#fde725;stroke-opacity:0.8;" x="301.102857" xlink:href="#C0_0_19c5108139" y="130.480849"/>
    </g>
    <g clip-path="url(#p787a219f33)">
     <use style="fill:#fde725;fill-opacity:0.8;stroke:#fde725;stroke-opacity:0.8;" x="283.446384" xlink:href="#C0_0_19c5108139" y="136.023957"/>
    </g>
    <g clip-path="url(#p787a219f33)">
     <use style="fill:#fde725;fill-opacity:0.8;stroke:#fde725;stroke-opacity:0.8;" x="267.936097" xlink:href="#C0_0_19c5108139" y="162.629598"/>
    </g>
    <g clip-path="url(#p787a219f33)">
     <use style="fill:#fde725;fill-opacity:0.8;stroke:#fde725;stroke-opacity:0.8;" x="276.75916" xlink:href="#C0_0_19c5108139" y="141.160903"/>
    </g>
    <g clip-path="url(#p787a219f33)">
     <use style="fill:#fde725;fill-opacity:0.8;stroke:#fde725;stroke-opacity:0.8;" x="281.840527" xlink:href="#C0_0_19c5108139" y="139.375574"/>
    </g>
    <g clip-path="url(#p787a219f33)">
     <use style="fill:#fde725;fill-opacity:0.8;stroke:#fde725;stroke-opacity:0.8;" x="262.840525" xlink:href="#C0_0_19c5108139" y="158.249787"/>
    </g>
   </g>
   <g id="matplotlib.axis_1">
    <g id="xtick_1">
     <g id="line2d_1">
      <defs>
       <path d="M 0 0 
L 0 3.5 
" id="m8c422f1518" style="stroke:#000000;stroke-width:0.8;"/>
      </defs>
      <g>
       <use style="stroke:#000000;stroke-width:0.8;" x="62.325499" xlink:href="#m8c422f1518" y="252"/>
      </g>
     </g>
     <g id="text_1">
      <!-- 4 -->
      <defs>
       <path d="M 5 40.09375 
L 77.40625 40.09375 
L 77.40625 31.90625 
L 5 31.90625 
z
" id="PingFang%20SC%20Medium-8722"/>
       <path d="M 38.40625 71.40625 
L 46.09375 71.40625 
L 46.09375 22.90625 
L 57.703125 22.90625 
L 57.703125 16.203125 
L 46.09375 16.203125 
L 46.09375 0 
L 38.296875 0 
L 38.296875 16.203125 
L 2.40625 16.203125 
L 2.40625 24 
z
M 38 60.703125 
L 9.296875 22.90625 
L 38.296875 22.90625 
L 38.296875 60.703125 
z
" id="PingFang%20SC%20Medium-52"/>
      </defs>
      <g transform="translate(55.205187 266.279688)scale(0.1 -0.1)">
       <use xlink:href="#PingFang%20SC%20Medium-8722"/>
       <use x="82.399994" xlink:href="#PingFang%20SC%20Medium-52"/>
      </g>
     </g>
    </g>
    <g id="xtick_2">
     <g id="line2d_2">
      <g>
       <use style="stroke:#000000;stroke-width:0.8;" x="99.525499" xlink:href="#m8c422f1518" y="252"/>
      </g>
     </g>
     <g id="text_2">
      <!-- 3 -->
      <defs>
       <path d="M 30.703125 72.796875 
Q 41.09375 72.796875 47.296875 67.59375 
Q 53.5 62.296875 53.5 53.40625 
Q 53.5 41.296875 41.796875 37.40625 
Q 48.203125 35.40625 51.40625 31.296875 
Q 55 27.09375 55 20.796875 
Q 55 11.09375 48.203125 4.90625 
Q 41.296875 -1.40625 30.203125 -1.40625 
Q 20.203125 -1.40625 13.59375 3.796875 
Q 6 10.09375 5.09375 22.09375 
L 13.40625 22.09375 
Q 13.703125 13.703125 19 9.296875 
Q 23.59375 5.59375 30.203125 5.59375 
Q 37.796875 5.59375 42.5 10 
Q 46.796875 14.296875 46.796875 20.5 
Q 46.796875 26.90625 42.59375 30.5 
Q 38.5 34 31 34 
L 25.203125 34 
L 25.203125 40.40625 
L 30.703125 40.40625 
Q 37.796875 40.40625 41.59375 43.59375 
Q 45.40625 46.90625 45.40625 52.90625 
Q 45.40625 58.796875 41.703125 62.203125 
Q 37.90625 65.703125 30.796875 65.703125 
Q 23.5 65.703125 19.59375 61.90625 
Q 15.5 58.09375 14.703125 50.796875 
L 6.59375 50.796875 
Q 7.5 61.09375 14.203125 67 
Q 20.40625 72.796875 30.703125 72.796875 
z
" id="PingFang%20SC%20Medium-51"/>
      </defs>
      <g transform="translate(92.405187 266.279688)scale(0.1 -0.1)">
       <use xlink:href="#PingFang%20SC%20Medium-8722"/>
       <use x="82.399994" xlink:href="#PingFang%20SC%20Medium-51"/>
      </g>
     </g>
    </g>
    <g id="xtick_3">
     <g id="line2d_3">
      <g>
       <use style="stroke:#000000;stroke-width:0.8;" x="136.725499" xlink:href="#m8c422f1518" y="252"/>
      </g>
     </g>
     <g id="text_3">
      <!-- 2 -->
      <defs>
       <path d="M 31 72.796875 
Q 40.90625 72.796875 47.296875 67.09375 
Q 53.703125 61.296875 53.703125 52 
Q 53.703125 42.796875 46.703125 35.203125 
Q 42.59375 30.90625 31.90625 23.703125 
Q 18.296875 14.59375 16.296875 7.296875 
L 53.796875 7.296875 
L 53.796875 0 
L 6.203125 0 
Q 6.203125 9.90625 13.296875 17.703125 
Q 17.90625 22.90625 28.796875 30.40625 
Q 37.296875 36.5 40 39.296875 
Q 45.5 45.296875 45.5 52.09375 
Q 45.5 58.59375 41.59375 62.203125 
Q 37.703125 65.796875 30.703125 65.796875 
Q 23.203125 65.796875 19.40625 60.796875 
Q 15.09375 55.90625 15 46.5 
L 6.796875 46.5 
Q 6.796875 58.40625 13.5 65.59375 
Q 20.09375 72.796875 31 72.796875 
z
" id="PingFang%20SC%20Medium-50"/>
      </defs>
      <g transform="translate(129.605187 266.279688)scale(0.1 -0.1)">
       <use xlink:href="#PingFang%20SC%20Medium-8722"/>
       <use x="82.399994" xlink:href="#PingFang%20SC%20Medium-50"/>
      </g>
     </g>
    </g>
    <g id="xtick_4">
     <g id="line2d_4">
      <g>
       <use style="stroke:#000000;stroke-width:0.8;" x="173.925499" xlink:href="#m8c422f1518" y="252"/>
      </g>
     </g>
     <g id="text_4">
      <!-- 1 -->
      <defs>
       <path d="M 36.09375 71.40625 
L 36.09375 0 
L 27.90625 0 
L 27.90625 61.40625 
Q 21.296875 54.59375 11.09375 51.59375 
L 11.09375 59.796875 
Q 15.796875 61.09375 21.09375 64.203125 
Q 26 67.203125 29.703125 71.40625 
z
" id="PingFang%20SC%20Medium-49"/>
      </defs>
      <g transform="translate(166.805187 266.279688)scale(0.1 -0.1)">
       <use xlink:href="#PingFang%20SC%20Medium-8722"/>
       <use x="82.399994" xlink:href="#PingFang%20SC%20Medium-49"/>
      </g>
     </g>
    </g>
    <g id="xtick_5">
     <g id="line2d_5">
      <g>
       <use style="stroke:#000000;stroke-width:0.8;" x="211.125499" xlink:href="#m8c422f1518" y="252"/>
      </g>
     </g>
     <g id="text_5">
      <!-- 0 -->
      <defs>
       <path d="M 30 72.796875 
Q 42.796875 72.796875 49.296875 61.5 
Q 55 51.90625 55 35.703125 
Q 55 19.5 49.296875 9.90625 
Q 42.703125 -1.40625 30 -1.40625 
Q 17.203125 -1.40625 10.703125 9.90625 
Q 5 19.5 5 35.703125 
Q 5 51.90625 10.703125 61.5 
Q 17.09375 72.796875 30 72.796875 
z
M 30 65.796875 
Q 20.40625 65.796875 16.203125 55.5 
Q 13.203125 48.296875 13.203125 35.703125 
Q 13.203125 23.296875 16.203125 15.90625 
Q 20.40625 5.59375 30 5.59375 
Q 39.59375 5.59375 43.796875 15.90625 
Q 46.90625 23.5 46.90625 35.703125 
Q 46.90625 48.09375 43.796875 55.5 
Q 39.59375 65.796875 30 65.796875 
z
" id="PingFang%20SC%20Medium-48"/>
      </defs>
      <g transform="translate(208.125499 266.279688)scale(0.1 -0.1)">
       <use xlink:href="#PingFang%20SC%20Medium-48"/>
      </g>
     </g>
    </g>
    <g id="xtick_6">
     <g id="line2d_6">
      <g>
       <use style="stroke:#000000;stroke-width:0.8;" x="248.325499" xlink:href="#m8c422f1518" y="252"/>
      </g>
     </g>
     <g id="text_6">
      <!-- 1 -->
      <g transform="translate(245.325499 266.279688)scale(0.1 -0.1)">
       <use xlink:href="#PingFang%20SC%20Medium-49"/>
      </g>
     </g>
    </g>
    <g id="xtick_7">
     <g id="line2d_7">
      <g>
       <use style="stroke:#000000;stroke-width:0.8;" x="285.525499" xlink:href="#m8c422f1518" y="252"/>
      </g>
     </g>
     <g id="text_7">
      <!-- 2 -->
      <g transform="translate(282.525499 266.279688)scale(0.1 -0.1)">
       <use xlink:href="#PingFang%20SC%20Medium-50"/>
      </g>
     </g>
    </g>
    <g id="xtick_8">
     <g id="line2d_8">
      <g>
       <use style="stroke:#000000;stroke-width:0.8;" x="322.725499" xlink:href="#m8c422f1518" y="252"/>
      </g>
     </g>
     <g id="text_8">
      <!-- 3 -->
      <g transform="translate(319.725499 266.279688)scale(0.1 -0.1)">
       <use xlink:href="#PingFang%20SC%20Medium-51"/>
      </g>
     </g>
    </g>
    <g id="xtick_9">
     <g id="line2d_9">
      <g>
       <use style="stroke:#000000;stroke-width:0.8;" x="359.925499" xlink:href="#m8c422f1518" y="252"/>
      </g>
     </g>
     <g id="text_9">
      <!-- 4 -->
      <g transform="translate(356.925499 266.279688)scale(0.1 -0.1)">
       <use xlink:href="#PingFang%20SC%20Medium-52"/>
      </g>
     </g>
    </g>
   </g>
   <g id="matplotlib.axis_2">
    <g id="ytick_1">
     <g id="line2d_10">
      <defs>
       <path d="M 0 0 
L -3.5 0 
" id="mac12561158" style="stroke:#000000;stroke-width:0.8;"/>
      </defs>
      <g>
       <use style="stroke:#000000;stroke-width:0.8;" x="54" xlink:href="#mac12561158" y="239.427657"/>
      </g>
     </g>
     <g id="text_10">
      <!-- 2 -->
      <g transform="translate(32.759375 243.067501)scale(0.1 -0.1)">
       <use xlink:href="#PingFang%20SC%20Medium-8722"/>
       <use x="82.399994" xlink:href="#PingFang%20SC%20Medium-50"/>
      </g>
     </g>
    </g>
    <g id="ytick_2">
     <g id="line2d_11">
      <g>
       <use style="stroke:#000000;stroke-width:0.8;" x="54" xlink:href="#mac12561158" y="192.158092"/>
      </g>
     </g>
     <g id="text_11">
      <!-- 1 -->
      <g transform="translate(32.759375 195.797936)scale(0.1 -0.1)">
       <use xlink:href="#PingFang%20SC%20Medium-8722"/>
       <use x="82.399994" xlink:href="#PingFang%20SC%20Medium-49"/>
      </g>
     </g>
    </g>
    <g id="ytick_3">
     <g id="line2d_12">
      <g>
       <use style="stroke:#000000;stroke-width:0.8;" x="54" xlink:href="#mac12561158" y="144.888527"/>
      </g>
     </g>
     <g id="text_12">
      <!-- 0 -->
      <g transform="translate(41 148.528371)scale(0.1 -0.1)">
       <use xlink:href="#PingFang%20SC%20Medium-48"/>
      </g>
     </g>
    </g>
    <g id="ytick_4">
     <g id="line2d_13">
      <g>
       <use style="stroke:#000000;stroke-width:0.8;" x="54" xlink:href="#mac12561158" y="97.618962"/>
      </g>
     </g>
     <g id="text_13">
      <!-- 1 -->
      <g transform="translate(41 101.258806)scale(0.1 -0.1)">
       <use xlink:href="#PingFang%20SC%20Medium-49"/>
      </g>
     </g>
    </g>
    <g id="ytick_5">
     <g id="line2d_14">
      <g>
       <use style="stroke:#000000;stroke-width:0.8;" x="54" xlink:href="#mac12561158" y="50.349397"/>
      </g>
     </g>
     <g id="text_14">
      <!-- 2 -->
      <g transform="translate(41 53.98924)scale(0.1 -0.1)">
       <use xlink:href="#PingFang%20SC%20Medium-50"/>
      </g>
     </g>
    </g>
   </g>
   <g id="patch_3">
    <path d="M 54 252 
L 54 34.56 
" style="fill:none;stroke:#000000;stroke-linecap:square;stroke-linejoin:miter;stroke-width:0.8;"/>
   </g>
   <g id="patch_4">
    <path d="M 388.8 252 
L 388.8 34.56 
" style="fill:none;stroke:#000000;stroke-linecap:square;stroke-linejoin:miter;stroke-width:0.8;"/>
   </g>
   <g id="patch_5">
    <path d="M 54 252 
L 388.8 252 
" style="fill:none;stroke:#000000;stroke-linecap:square;stroke-linejoin:miter;stroke-width:0.8;"/>
   </g>
   <g id="patch_6">
    <path d="M 54 34.56 
L 388.8 34.56 
" style="fill:none;stroke:#000000;stroke-linecap:square;stroke-linejoin:miter;stroke-width:0.8;"/>
   </g>
  </g>
 </g>
 <defs>
  <clipPath id="p787a219f33">
   <rect height="217.44" width="334.8" x="54" y="34.56"/>
  </clipPath>
 </defs>
</svg>
