<?xml version="1.0" encoding="utf-8" standalone="no"?>
<!DOCTYPE svg PUBLIC "-//W3C//DTD SVG 1.1//EN"
  "http://www.w3.org/Graphics/SVG/1.1/DTD/svg11.dtd">
<!-- Created with matplotlib (https://matplotlib.org/) -->
<svg height="288pt" version="1.1" viewBox="0 0 432 288" width="432pt" xmlns="http://www.w3.org/2000/svg" xmlns:xlink="http://www.w3.org/1999/xlink">
 <defs>
  <style type="text/css">
*{stroke-linecap:butt;stroke-linejoin:round;}
  </style>
 </defs>
 <g id="figure_1">
  <g id="patch_1">
   <path d="M 0 288 
L 432 288 
L 432 0 
L 0 0 
z
" style="fill:#ffffff;"/>
  </g>
  <g id="axes_1">
   <g id="patch_2">
    <path d="M 54 252 
L 388.8 252 
L 388.8 34.56 
L 54 34.56 
z
" style="fill:#ffffff;"/>
   </g>
   <g id="PathCollection_1">
    <path clip-path="url(#pb016d3cd77)" d="M 57.72 252 
L 61.44 252 
L 65.16 252 
L 68.88 252 
L 72.6 252 
L 76.32 252 
L 80.04 252 
L 83.76 252 
L 87.48 252 
L 91.2 252 
L 94.92 252 
L 95.85 252 
L 98.64 248.454783 
L 99.57 247.273043 
L 102.36 243.727826 
L 103.29 242.546087 
L 106.08 239.00087 
L 109.8 239.00087 
L 110.73 237.81913 
L 113.52 234.273913 
L 114.45 233.092174 
L 117.24 229.546957 
L 118.17 228.365217 
L 120.96 224.82 
L 121.89 223.638261 
L 124.68 220.093043 
L 125.61 218.911304 
L 128.4 215.366087 
L 129.33 214.184348 
L 132.12 210.63913 
L 135.84 210.63913 
L 136.77 209.457391 
L 139.56 205.912174 
L 140.49 204.730435 
L 143.28 201.185217 
L 144.21 200.003478 
L 147 196.458261 
L 147.93 195.276522 
L 150.72 191.731304 
L 151.65 190.549565 
L 154.44 187.004348 
L 155.37 185.822609 
L 158.16 182.277391 
L 161.88 182.277391 
L 162.81 181.095652 
L 165.6 177.550435 
L 166.53 176.368696 
L 169.32 172.823478 
L 170.25 171.641739 
L 173.04 168.096522 
L 173.97 166.914783 
L 176.76 163.369565 
L 177.69 162.187826 
L 180.48 158.642609 
L 181.41 157.46087 
L 184.2 153.915652 
L 187.92 153.915652 
L 188.85 152.733913 
L 191.64 149.188696 
L 192.57 148.006957 
L 195.36 144.461739 
L 196.29 143.28 
L 199.08 139.734783 
L 200.01 138.553043 
L 202.8 135.007826 
L 203.73 133.826087 
L 206.52 130.28087 
L 207.45 129.09913 
L 210.24 125.553913 
L 213.96 125.553913 
L 214.89 124.372174 
L 217.68 120.826957 
L 218.61 119.645217 
L 221.4 116.1 
L 222.33 114.918261 
L 225.12 111.373043 
L 226.05 110.191304 
L 228.84 106.646087 
L 229.77 105.464348 
L 232.56 101.91913 
L 233.49 100.737391 
L 236.28 97.192174 
L 236.745 96.010435 
L 240 91.874348 
L 240.465 91.283478 
L 240.465 86.556522 
L 243.72 82.420435 
L 244.185 81.829565 
L 244.185 77.102609 
L 247.44 72.966522 
L 247.905 72.375652 
L 247.905 67.648696 
L 251.16 63.512609 
L 251.625 62.921739 
L 251.625 58.194783 
L 254.88 54.058696 
L 255.345 53.467826 
L 255.345 48.74087 
L 258.6 44.604783 
L 259.065 44.013913 
L 259.065 39.286957 
L 262.32 35.15087 
L 262.785 34.56 
L 262.32 34.56 
L 258.6 34.56 
L 254.88 34.56 
L 251.16 34.56 
L 247.44 34.56 
L 243.72 34.56 
L 240 34.56 
L 236.28 34.56 
L 232.56 34.56 
L 228.84 34.56 
L 225.12 34.56 
L 221.4 34.56 
L 217.68 34.56 
L 213.96 34.56 
L 210.24 34.56 
L 206.52 34.56 
L 202.8 34.56 
L 199.08 34.56 
L 195.36 34.56 
L 191.64 34.56 
L 187.92 34.56 
L 184.2 34.56 
L 180.48 34.56 
L 176.76 34.56 
L 173.04 34.56 
L 169.32 34.56 
L 165.6 34.56 
L 161.88 34.56 
L 158.16 34.56 
L 154.44 34.56 
L 150.72 34.56 
L 147 34.56 
L 143.28 34.56 
L 139.56 34.56 
L 135.84 34.56 
L 132.12 34.56 
L 128.4 34.56 
L 124.68 34.56 
L 120.96 34.56 
L 117.24 34.56 
L 113.52 34.56 
L 109.8 34.56 
L 106.08 34.56 
L 102.36 34.56 
L 98.64 34.56 
L 94.92 34.56 
L 91.2 34.56 
L 87.48 34.56 
L 83.76 34.56 
L 80.04 34.56 
L 76.32 34.56 
L 72.6 34.56 
L 68.88 34.56 
L 65.16 34.56 
L 61.44 34.56 
L 57.72 34.56 
L 54 34.56 
L 54 39.286957 
L 54 44.013913 
L 54 48.74087 
L 54 53.467826 
L 54 58.194783 
L 54 62.921739 
L 54 67.648696 
L 54 72.375652 
L 54 77.102609 
L 54 81.829565 
L 54 86.556522 
L 54 91.283478 
L 54 96.010435 
L 54 100.737391 
L 54 105.464348 
L 54 110.191304 
L 54 114.918261 
L 54 119.645217 
L 54 124.372174 
L 54 129.09913 
L 54 133.826087 
L 54 138.553043 
L 54 143.28 
L 54 148.006957 
L 54 152.733913 
L 54 157.46087 
L 54 162.187826 
L 54 166.914783 
L 54 171.641739 
L 54 176.368696 
L 54 181.095652 
L 54 185.822609 
L 54 190.549565 
L 54 195.276522 
L 54 200.003478 
L 54 204.730435 
L 54 209.457391 
L 54 214.184348 
L 54 218.911304 
L 54 223.638261 
L 54 228.365217 
L 54 233.092174 
L 54 237.81913 
L 54 242.546087 
L 54 247.273043 
L 54 252 
z
" style="fill:#48186a;fill-opacity:0.4;"/>
   </g>
   <g id="PathCollection_2">
    <path clip-path="url(#pb016d3cd77)" d="M 98.64 249.636522 
L 100.5 247.273043 
L 102.36 244.909565 
L 104.22 242.546087 
L 106.08 240.182609 
L 109.8 240.182609 
L 111.66 237.81913 
L 113.52 235.455652 
L 115.38 233.092174 
L 117.24 230.728696 
L 119.1 228.365217 
L 120.96 226.001739 
L 122.82 223.638261 
L 124.68 221.274783 
L 126.54 218.911304 
L 128.4 216.547826 
L 130.26 214.184348 
L 132.12 211.82087 
L 135.84 211.82087 
L 137.7 209.457391 
L 139.56 207.093913 
L 141.42 204.730435 
L 143.28 202.366957 
L 145.14 200.003478 
L 147 197.64 
L 148.86 195.276522 
L 150.72 192.913043 
L 152.58 190.549565 
L 154.44 188.186087 
L 156.3 185.822609 
L 158.16 183.45913 
L 161.88 183.45913 
L 163.74 181.095652 
L 165.6 178.732174 
L 167.46 176.368696 
L 169.32 174.005217 
L 171.18 171.641739 
L 173.04 169.278261 
L 174.9 166.914783 
L 176.76 164.551304 
L 178.62 162.187826 
L 180.48 159.824348 
L 182.34 157.46087 
L 184.2 155.097391 
L 187.92 155.097391 
L 189.78 152.733913 
L 191.64 150.370435 
L 193.5 148.006957 
L 195.36 145.643478 
L 197.22 143.28 
L 199.08 140.916522 
L 200.94 138.553043 
L 202.8 136.189565 
L 204.66 133.826087 
L 206.52 131.462609 
L 208.38 129.09913 
L 210.24 126.735652 
L 213.96 126.735652 
L 215.82 124.372174 
L 217.68 122.008696 
L 219.54 119.645217 
L 221.4 117.281739 
L 223.26 114.918261 
L 225.12 112.554783 
L 226.98 110.191304 
L 228.84 107.827826 
L 230.7 105.464348 
L 232.56 103.10087 
L 234.42 100.737391 
L 236.28 98.373913 
L 237.21 96.010435 
L 240 92.465217 
L 240.93 91.283478 
L 240.93 86.556522 
L 243.72 83.011304 
L 244.65 81.829565 
L 244.65 77.102609 
L 247.44 73.557391 
L 248.37 72.375652 
L 248.37 67.648696 
L 251.16 64.103478 
L 252.09 62.921739 
L 252.09 58.194783 
L 254.88 54.649565 
L 255.81 53.467826 
L 255.81 48.74087 
L 258.6 45.195652 
L 259.53 44.013913 
L 259.53 39.286957 
L 262.32 35.741739 
L 263.25 34.56 
L 262.785 34.56 
L 262.32 35.15087 
L 259.065 39.286957 
L 259.065 44.013913 
L 258.6 44.604783 
L 255.345 48.74087 
L 255.345 53.467826 
L 254.88 54.058696 
L 251.625 58.194783 
L 251.625 62.921739 
L 251.16 63.512609 
L 247.905 67.648696 
L 247.905 72.375652 
L 247.44 72.966522 
L 244.185 77.102609 
L 244.185 81.829565 
L 243.72 82.420435 
L 240.465 86.556522 
L 240.465 91.283478 
L 240 91.874348 
L 236.745 96.010435 
L 236.28 97.192174 
L 233.49 100.737391 
L 232.56 101.91913 
L 229.77 105.464348 
L 228.84 106.646087 
L 226.05 110.191304 
L 225.12 111.373043 
L 222.33 114.918261 
L 221.4 116.1 
L 218.61 119.645217 
L 217.68 120.826957 
L 214.89 124.372174 
L 213.96 125.553913 
L 210.24 125.553913 
L 207.45 129.09913 
L 206.52 130.28087 
L 203.73 133.826087 
L 202.8 135.007826 
L 200.01 138.553043 
L 199.08 139.734783 
L 196.29 143.28 
L 195.36 144.461739 
L 192.57 148.006957 
L 191.64 149.188696 
L 188.85 152.733913 
L 187.92 153.915652 
L 184.2 153.915652 
L 181.41 157.46087 
L 180.48 158.642609 
L 177.69 162.187826 
L 176.76 163.369565 
L 173.97 166.914783 
L 173.04 168.096522 
L 170.25 171.641739 
L 169.32 172.823478 
L 166.53 176.368696 
L 165.6 177.550435 
L 162.81 181.095652 
L 161.88 182.277391 
L 158.16 182.277391 
L 155.37 185.822609 
L 154.44 187.004348 
L 151.65 190.549565 
L 150.72 191.731304 
L 147.93 195.276522 
L 147 196.458261 
L 144.21 200.003478 
L 143.28 201.185217 
L 140.49 204.730435 
L 139.56 205.912174 
L 136.77 209.457391 
L 135.84 210.63913 
L 132.12 210.63913 
L 129.33 214.184348 
L 128.4 215.366087 
L 125.61 218.911304 
L 124.68 220.093043 
L 121.89 223.638261 
L 120.96 224.82 
L 118.17 228.365217 
L 117.24 229.546957 
L 114.45 233.092174 
L 113.52 234.273913 
L 110.73 237.81913 
L 109.8 239.00087 
L 106.08 239.00087 
L 103.29 242.546087 
L 102.36 243.727826 
L 99.57 247.273043 
L 98.64 248.454783 
L 95.85 252 
L 96.78 252 
z
" style="fill:#424086;fill-opacity:0.4;"/>
   </g>
   <g id="PathCollection_3">
    <path clip-path="url(#pb016d3cd77)" d="M 98.64 250.818261 
L 101.43 247.273043 
L 102.36 246.091304 
L 105.15 242.546087 
L 106.08 241.364348 
L 109.8 241.364348 
L 112.59 237.81913 
L 113.52 236.637391 
L 116.31 233.092174 
L 117.24 231.910435 
L 120.03 228.365217 
L 120.96 227.183478 
L 123.75 223.638261 
L 124.68 222.456522 
L 127.47 218.911304 
L 128.4 217.729565 
L 131.19 214.184348 
L 132.12 213.002609 
L 135.84 213.002609 
L 138.63 209.457391 
L 139.56 208.275652 
L 142.35 204.730435 
L 143.28 203.548696 
L 146.07 200.003478 
L 147 198.821739 
L 149.79 195.276522 
L 150.72 194.094783 
L 153.51 190.549565 
L 154.44 189.367826 
L 157.23 185.822609 
L 158.16 184.64087 
L 161.88 184.64087 
L 164.67 181.095652 
L 165.6 179.913913 
L 168.39 176.368696 
L 169.32 175.186957 
L 172.11 171.641739 
L 173.04 170.46 
L 175.83 166.914783 
L 176.76 165.733043 
L 179.55 162.187826 
L 180.48 161.006087 
L 183.27 157.46087 
L 184.2 156.27913 
L 187.92 156.27913 
L 190.71 152.733913 
L 191.64 151.552174 
L 194.43 148.006957 
L 195.36 146.825217 
L 198.15 143.28 
L 199.08 142.098261 
L 201.87 138.553043 
L 202.8 137.371304 
L 205.59 133.826087 
L 206.52 132.644348 
L 209.31 129.09913 
L 210.24 127.917391 
L 213.96 127.917391 
L 216.75 124.372174 
L 217.68 123.190435 
L 220.47 119.645217 
L 221.4 118.463478 
L 224.19 114.918261 
L 225.12 113.736522 
L 227.91 110.191304 
L 228.84 109.009565 
L 231.63 105.464348 
L 232.56 104.282609 
L 235.35 100.737391 
L 236.28 99.555652 
L 237.675 96.010435 
L 240 93.056087 
L 241.395 91.283478 
L 241.395 86.556522 
L 243.72 83.602174 
L 245.115 81.829565 
L 245.115 77.102609 
L 247.44 74.148261 
L 248.835 72.375652 
L 248.835 67.648696 
L 251.16 64.694348 
L 252.555 62.921739 
L 252.555 58.194783 
L 254.88 55.240435 
L 256.275 53.467826 
L 256.275 48.74087 
L 258.6 45.786522 
L 259.995 44.013913 
L 259.995 39.286957 
L 262.32 36.332609 
L 263.715 34.56 
L 263.25 34.56 
L 262.32 35.741739 
L 259.53 39.286957 
L 259.53 44.013913 
L 258.6 45.195652 
L 255.81 48.74087 
L 255.81 53.467826 
L 254.88 54.649565 
L 252.09 58.194783 
L 252.09 62.921739 
L 251.16 64.103478 
L 248.37 67.648696 
L 248.37 72.375652 
L 247.44 73.557391 
L 244.65 77.102609 
L 244.65 81.829565 
L 243.72 83.011304 
L 240.93 86.556522 
L 240.93 91.283478 
L 240 92.465217 
L 237.21 96.010435 
L 236.28 98.373913 
L 234.42 100.737391 
L 232.56 103.10087 
L 230.7 105.464348 
L 228.84 107.827826 
L 226.98 110.191304 
L 225.12 112.554783 
L 223.26 114.918261 
L 221.4 117.281739 
L 219.54 119.645217 
L 217.68 122.008696 
L 215.82 124.372174 
L 213.96 126.735652 
L 210.24 126.735652 
L 208.38 129.09913 
L 206.52 131.462609 
L 204.66 133.826087 
L 202.8 136.189565 
L 200.94 138.553043 
L 199.08 140.916522 
L 197.22 143.28 
L 195.36 145.643478 
L 193.5 148.006957 
L 191.64 150.370435 
L 189.78 152.733913 
L 187.92 155.097391 
L 184.2 155.097391 
L 182.34 157.46087 
L 180.48 159.824348 
L 178.62 162.187826 
L 176.76 164.551304 
L 174.9 166.914783 
L 173.04 169.278261 
L 171.18 171.641739 
L 169.32 174.005217 
L 167.46 176.368696 
L 165.6 178.732174 
L 163.74 181.095652 
L 161.88 183.45913 
L 158.16 183.45913 
L 156.3 185.822609 
L 154.44 188.186087 
L 152.58 190.549565 
L 150.72 192.913043 
L 148.86 195.276522 
L 147 197.64 
L 145.14 200.003478 
L 143.28 202.366957 
L 141.42 204.730435 
L 139.56 207.093913 
L 137.7 209.457391 
L 135.84 211.82087 
L 132.12 211.82087 
L 130.26 214.184348 
L 128.4 216.547826 
L 126.54 218.911304 
L 124.68 221.274783 
L 122.82 223.638261 
L 120.96 226.001739 
L 119.1 228.365217 
L 117.24 230.728696 
L 115.38 233.092174 
L 113.52 235.455652 
L 111.66 237.81913 
L 109.8 240.182609 
L 106.08 240.182609 
L 104.22 242.546087 
L 102.36 244.909565 
L 100.5 247.273043 
L 98.64 249.636522 
L 96.78 252 
L 97.71 252 
z
" style="fill:#33638d;fill-opacity:0.4;"/>
   </g>
   <g id="PathCollection_4">
    <path clip-path="url(#pb016d3cd77)" d="M 98.64 252 
L 102.36 252 
L 106.08 252 
L 109.8 252 
L 113.52 252 
L 117.24 252 
L 120.96 252 
L 124.68 252 
L 128.4 252 
L 132.12 252 
L 135.84 252 
L 139.56 252 
L 143.28 252 
L 147 252 
L 150.72 252 
L 154.44 252 
L 158.16 252 
L 161.88 252 
L 165.6 252 
L 169.32 252 
L 173.04 252 
L 176.76 252 
L 180.48 252 
L 184.2 252 
L 187.92 252 
L 191.64 252 
L 195.36 252 
L 199.08 252 
L 202.8 252 
L 206.52 252 
L 210.24 252 
L 213.96 252 
L 217.68 252 
L 221.4 252 
L 225.12 252 
L 228.84 252 
L 232.56 252 
L 236.28 252 
L 240 252 
L 243.72 252 
L 247.44 252 
L 251.16 252 
L 254.88 252 
L 258.6 252 
L 262.32 252 
L 266.04 252 
L 269.76 252 
L 269.76 247.273043 
L 269.76 242.546087 
L 266.04 237.81913 
L 266.04 233.092174 
L 266.04 228.365217 
L 262.32 223.638261 
L 262.32 218.911304 
L 262.32 214.184348 
L 262.32 209.457391 
L 258.6 204.730435 
L 258.6 200.003478 
L 258.6 195.276522 
L 258.6 190.549565 
L 254.88 185.822609 
L 254.88 181.095652 
L 254.88 176.368696 
L 251.16 171.641739 
L 251.16 166.914783 
L 251.16 162.187826 
L 251.16 157.46087 
L 247.44 152.733913 
L 247.44 148.006957 
L 247.44 143.28 
L 247.44 138.553043 
L 243.72 133.826087 
L 243.72 129.09913 
L 243.72 124.372174 
L 240 119.645217 
L 240 114.918261 
L 240 110.191304 
L 240 105.464348 
L 236.28 100.737391 
L 238.14 96.010435 
L 240 93.646957 
L 241.86 91.283478 
L 241.86 86.556522 
L 243.72 84.193043 
L 245.58 81.829565 
L 245.58 77.102609 
L 247.44 74.73913 
L 249.3 72.375652 
L 249.3 67.648696 
L 251.16 65.285217 
L 253.02 62.921739 
L 253.02 58.194783 
L 254.88 55.831304 
L 256.74 53.467826 
L 256.74 48.74087 
L 258.6 46.377391 
L 260.46 44.013913 
L 260.46 39.286957 
L 262.32 36.923478 
L 264.18 34.56 
L 263.715 34.56 
L 262.32 36.332609 
L 259.995 39.286957 
L 259.995 44.013913 
L 258.6 45.786522 
L 256.275 48.74087 
L 256.275 53.467826 
L 254.88 55.240435 
L 252.555 58.194783 
L 252.555 62.921739 
L 251.16 64.694348 
L 248.835 67.648696 
L 248.835 72.375652 
L 247.44 74.148261 
L 245.115 77.102609 
L 245.115 81.829565 
L 243.72 83.602174 
L 241.395 86.556522 
L 241.395 91.283478 
L 240 93.056087 
L 237.675 96.010435 
L 236.28 99.555652 
L 235.35 100.737391 
L 232.56 104.282609 
L 231.63 105.464348 
L 228.84 109.009565 
L 227.91 110.191304 
L 225.12 113.736522 
L 224.19 114.918261 
L 221.4 118.463478 
L 220.47 119.645217 
L 217.68 123.190435 
L 216.75 124.372174 
L 213.96 127.917391 
L 210.24 127.917391 
L 209.31 129.09913 
L 206.52 132.644348 
L 205.59 133.826087 
L 202.8 137.371304 
L 201.87 138.553043 
L 199.08 142.098261 
L 198.15 143.28 
L 195.36 146.825217 
L 194.43 148.006957 
L 191.64 151.552174 
L 190.71 152.733913 
L 187.92 156.27913 
L 184.2 156.27913 
L 183.27 157.46087 
L 180.48 161.006087 
L 179.55 162.187826 
L 176.76 165.733043 
L 175.83 166.914783 
L 173.04 170.46 
L 172.11 171.641739 
L 169.32 175.186957 
L 168.39 176.368696 
L 165.6 179.913913 
L 164.67 181.095652 
L 161.88 184.64087 
L 158.16 184.64087 
L 157.23 185.822609 
L 154.44 189.367826 
L 153.51 190.549565 
L 150.72 194.094783 
L 149.79 195.276522 
L 147 198.821739 
L 146.07 200.003478 
L 143.28 203.548696 
L 142.35 204.730435 
L 139.56 208.275652 
L 138.63 209.457391 
L 135.84 213.002609 
L 132.12 213.002609 
L 131.19 214.184348 
L 128.4 217.729565 
L 127.47 218.911304 
L 124.68 222.456522 
L 123.75 223.638261 
L 120.96 227.183478 
L 120.03 228.365217 
L 117.24 231.910435 
L 116.31 233.092174 
L 113.52 236.637391 
L 112.59 237.81913 
L 109.8 241.364348 
L 106.08 241.364348 
L 105.15 242.546087 
L 102.36 246.091304 
L 101.43 247.273043 
L 98.64 250.818261 
L 97.71 252 
z
" style="fill:#26828e;fill-opacity:0.4;"/>
   </g>
   <g id="PathCollection_5">
    <path clip-path="url(#pb016d3cd77)" d="M 270.69 247.273043 
L 270.69 242.546087 
L 269.76 241.364348 
L 266.97 237.81913 
L 266.97 233.092174 
L 266.97 228.365217 
L 266.04 227.183478 
L 263.25 223.638261 
L 263.25 218.911304 
L 263.25 214.184348 
L 263.25 209.457391 
L 262.32 208.275652 
L 259.53 204.730435 
L 259.53 200.003478 
L 259.53 195.276522 
L 259.53 190.549565 
L 258.6 189.367826 
L 255.81 185.822609 
L 255.81 181.095652 
L 255.81 176.368696 
L 254.88 175.186957 
L 252.09 171.641739 
L 252.09 166.914783 
L 252.09 162.187826 
L 252.09 157.46087 
L 251.16 156.27913 
L 248.37 152.733913 
L 248.37 148.006957 
L 248.37 143.28 
L 248.37 138.553043 
L 247.44 137.371304 
L 244.65 133.826087 
L 244.65 129.09913 
L 244.65 124.372174 
L 243.72 123.190435 
L 240.93 119.645217 
L 240.93 114.918261 
L 240.93 110.191304 
L 240.93 105.464348 
L 240 104.282609 
L 237.21 100.737391 
L 238.605 96.010435 
L 240 94.237826 
L 242.325 91.283478 
L 242.325 86.556522 
L 243.72 84.783913 
L 246.045 81.829565 
L 246.045 77.102609 
L 247.44 75.33 
L 249.765 72.375652 
L 249.765 67.648696 
L 251.16 65.876087 
L 253.485 62.921739 
L 253.485 58.194783 
L 254.88 56.422174 
L 257.205 53.467826 
L 257.205 48.74087 
L 258.6 46.968261 
L 260.925 44.013913 
L 260.925 39.286957 
L 262.32 37.514348 
L 264.645 34.56 
L 264.18 34.56 
L 262.32 36.923478 
L 260.46 39.286957 
L 260.46 44.013913 
L 258.6 46.377391 
L 256.74 48.74087 
L 256.74 53.467826 
L 254.88 55.831304 
L 253.02 58.194783 
L 253.02 62.921739 
L 251.16 65.285217 
L 249.3 67.648696 
L 249.3 72.375652 
L 247.44 74.73913 
L 245.58 77.102609 
L 245.58 81.829565 
L 243.72 84.193043 
L 241.86 86.556522 
L 241.86 91.283478 
L 240 93.646957 
L 238.14 96.010435 
L 236.28 100.737391 
L 240 105.464348 
L 240 110.191304 
L 240 114.918261 
L 240 119.645217 
L 243.72 124.372174 
L 243.72 129.09913 
L 243.72 133.826087 
L 247.44 138.553043 
L 247.44 143.28 
L 247.44 148.006957 
L 247.44 152.733913 
L 251.16 157.46087 
L 251.16 162.187826 
L 251.16 166.914783 
L 251.16 171.641739 
L 254.88 176.368696 
L 254.88 181.095652 
L 254.88 185.822609 
L 258.6 190.549565 
L 258.6 195.276522 
L 258.6 200.003478 
L 258.6 204.730435 
L 262.32 209.457391 
L 262.32 214.184348 
L 262.32 218.911304 
L 262.32 223.638261 
L 266.04 228.365217 
L 266.04 233.092174 
L 266.04 237.81913 
L 269.76 242.546087 
L 269.76 247.273043 
L 269.76 252 
L 270.69 252 
z
" style="fill:#1fa088;fill-opacity:0.4;"/>
   </g>
   <g id="PathCollection_6">
    <path clip-path="url(#pb016d3cd77)" d="M 271.62 247.273043 
L 271.62 242.546087 
L 269.76 240.182609 
L 267.9 237.81913 
L 267.9 233.092174 
L 267.9 228.365217 
L 266.04 226.001739 
L 264.18 223.638261 
L 264.18 218.911304 
L 264.18 214.184348 
L 264.18 209.457391 
L 262.32 207.093913 
L 260.46 204.730435 
L 260.46 200.003478 
L 260.46 195.276522 
L 260.46 190.549565 
L 258.6 188.186087 
L 256.74 185.822609 
L 256.74 181.095652 
L 256.74 176.368696 
L 254.88 174.005217 
L 253.02 171.641739 
L 253.02 166.914783 
L 253.02 162.187826 
L 253.02 157.46087 
L 251.16 155.097391 
L 249.3 152.733913 
L 249.3 148.006957 
L 249.3 143.28 
L 249.3 138.553043 
L 247.44 136.189565 
L 245.58 133.826087 
L 245.58 129.09913 
L 245.58 124.372174 
L 243.72 122.008696 
L 241.86 119.645217 
L 241.86 114.918261 
L 241.86 110.191304 
L 241.86 105.464348 
L 240 103.10087 
L 238.14 100.737391 
L 239.07 96.010435 
L 240 94.828696 
L 242.79 91.283478 
L 242.79 86.556522 
L 243.72 85.374783 
L 246.51 81.829565 
L 246.51 77.102609 
L 247.44 75.92087 
L 250.23 72.375652 
L 250.23 67.648696 
L 251.16 66.466957 
L 253.95 62.921739 
L 253.95 58.194783 
L 254.88 57.013043 
L 257.67 53.467826 
L 257.67 48.74087 
L 258.6 47.55913 
L 261.39 44.013913 
L 261.39 39.286957 
L 262.32 38.105217 
L 265.11 34.56 
L 264.645 34.56 
L 262.32 37.514348 
L 260.925 39.286957 
L 260.925 44.013913 
L 258.6 46.968261 
L 257.205 48.74087 
L 257.205 53.467826 
L 254.88 56.422174 
L 253.485 58.194783 
L 253.485 62.921739 
L 251.16 65.876087 
L 249.765 67.648696 
L 249.765 72.375652 
L 247.44 75.33 
L 246.045 77.102609 
L 246.045 81.829565 
L 243.72 84.783913 
L 242.325 86.556522 
L 242.325 91.283478 
L 240 94.237826 
L 238.605 96.010435 
L 237.21 100.737391 
L 240 104.282609 
L 240.93 105.464348 
L 240.93 110.191304 
L 240.93 114.918261 
L 240.93 119.645217 
L 243.72 123.190435 
L 244.65 124.372174 
L 244.65 129.09913 
L 244.65 133.826087 
L 247.44 137.371304 
L 248.37 138.553043 
L 248.37 143.28 
L 248.37 148.006957 
L 248.37 152.733913 
L 251.16 156.27913 
L 252.09 157.46087 
L 252.09 162.187826 
L 252.09 166.914783 
L 252.09 171.641739 
L 254.88 175.186957 
L 255.81 176.368696 
L 255.81 181.095652 
L 255.81 185.822609 
L 258.6 189.367826 
L 259.53 190.549565 
L 259.53 195.276522 
L 259.53 200.003478 
L 259.53 204.730435 
L 262.32 208.275652 
L 263.25 209.457391 
L 263.25 214.184348 
L 263.25 218.911304 
L 263.25 223.638261 
L 266.04 227.183478 
L 266.97 228.365217 
L 266.97 233.092174 
L 266.97 237.81913 
L 269.76 241.364348 
L 270.69 242.546087 
L 270.69 247.273043 
L 270.69 252 
L 271.62 252 
z
" style="fill:#3fbc73;fill-opacity:0.4;"/>
   </g>
   <g id="PathCollection_7">
    <path clip-path="url(#pb016d3cd77)" d="M 272.55 247.273043 
L 272.55 242.546087 
L 269.76 239.00087 
L 268.83 237.81913 
L 268.83 233.092174 
L 268.83 228.365217 
L 266.04 224.82 
L 265.11 223.638261 
L 265.11 218.911304 
L 265.11 214.184348 
L 265.11 209.457391 
L 262.32 205.912174 
L 261.39 204.730435 
L 261.39 200.003478 
L 261.39 195.276522 
L 261.39 190.549565 
L 258.6 187.004348 
L 257.67 185.822609 
L 257.67 181.095652 
L 257.67 176.368696 
L 254.88 172.823478 
L 253.95 171.641739 
L 253.95 166.914783 
L 253.95 162.187826 
L 253.95 157.46087 
L 251.16 153.915652 
L 250.23 152.733913 
L 250.23 148.006957 
L 250.23 143.28 
L 250.23 138.553043 
L 247.44 135.007826 
L 246.51 133.826087 
L 246.51 129.09913 
L 246.51 124.372174 
L 243.72 120.826957 
L 242.79 119.645217 
L 242.79 114.918261 
L 242.79 110.191304 
L 242.79 105.464348 
L 240 101.91913 
L 239.07 100.737391 
L 239.535 96.010435 
L 240 95.419565 
L 243.255 91.283478 
L 243.255 86.556522 
L 243.72 85.965652 
L 246.975 81.829565 
L 246.975 77.102609 
L 247.44 76.511739 
L 250.695 72.375652 
L 250.695 67.648696 
L 251.16 67.057826 
L 254.415 62.921739 
L 254.415 58.194783 
L 254.88 57.603913 
L 258.135 53.467826 
L 258.135 48.74087 
L 258.6 48.15 
L 261.855 44.013913 
L 261.855 39.286957 
L 262.32 38.696087 
L 265.575 34.56 
L 265.11 34.56 
L 262.32 38.105217 
L 261.39 39.286957 
L 261.39 44.013913 
L 258.6 47.55913 
L 257.67 48.74087 
L 257.67 53.467826 
L 254.88 57.013043 
L 253.95 58.194783 
L 253.95 62.921739 
L 251.16 66.466957 
L 250.23 67.648696 
L 250.23 72.375652 
L 247.44 75.92087 
L 246.51 77.102609 
L 246.51 81.829565 
L 243.72 85.374783 
L 242.79 86.556522 
L 242.79 91.283478 
L 240 94.828696 
L 239.07 96.010435 
L 238.14 100.737391 
L 240 103.10087 
L 241.86 105.464348 
L 241.86 110.191304 
L 241.86 114.918261 
L 241.86 119.645217 
L 243.72 122.008696 
L 245.58 124.372174 
L 245.58 129.09913 
L 245.58 133.826087 
L 247.44 136.189565 
L 249.3 138.553043 
L 249.3 143.28 
L 249.3 148.006957 
L 249.3 152.733913 
L 251.16 155.097391 
L 253.02 157.46087 
L 253.02 162.187826 
L 253.02 166.914783 
L 253.02 171.641739 
L 254.88 174.005217 
L 256.74 176.368696 
L 256.74 181.095652 
L 256.74 185.822609 
L 258.6 188.186087 
L 260.46 190.549565 
L 260.46 195.276522 
L 260.46 200.003478 
L 260.46 204.730435 
L 262.32 207.093913 
L 264.18 209.457391 
L 264.18 214.184348 
L 264.18 218.911304 
L 264.18 223.638261 
L 266.04 226.001739 
L 267.9 228.365217 
L 267.9 233.092174 
L 267.9 237.81913 
L 269.76 240.182609 
L 271.62 242.546087 
L 271.62 247.273043 
L 271.62 252 
L 272.55 252 
z
" style="fill:#84d44b;fill-opacity:0.4;"/>
   </g>
   <g id="PathCollection_8">
    <path clip-path="url(#pb016d3cd77)" d="M 273.48 252 
L 277.2 252 
L 280.92 252 
L 284.64 252 
L 288.36 252 
L 292.08 252 
L 295.8 252 
L 299.52 252 
L 303.24 252 
L 306.96 252 
L 310.68 252 
L 314.4 252 
L 318.12 252 
L 321.84 252 
L 325.56 252 
L 329.28 252 
L 333 252 
L 336.72 252 
L 340.44 252 
L 344.16 252 
L 347.88 252 
L 351.6 252 
L 355.32 252 
L 359.04 252 
L 362.76 252 
L 366.48 252 
L 370.2 252 
L 373.92 252 
L 377.64 252 
L 381.36 252 
L 385.08 252 
L 388.8 252 
L 388.8 247.273043 
L 388.8 242.546087 
L 388.8 237.81913 
L 388.8 233.092174 
L 388.8 228.365217 
L 388.8 223.638261 
L 388.8 218.911304 
L 388.8 214.184348 
L 388.8 209.457391 
L 388.8 204.730435 
L 388.8 200.003478 
L 388.8 195.276522 
L 388.8 190.549565 
L 388.8 185.822609 
L 388.8 181.095652 
L 388.8 176.368696 
L 388.8 171.641739 
L 388.8 166.914783 
L 388.8 162.187826 
L 388.8 157.46087 
L 388.8 152.733913 
L 388.8 148.006957 
L 388.8 143.28 
L 388.8 138.553043 
L 388.8 133.826087 
L 388.8 129.09913 
L 388.8 124.372174 
L 388.8 119.645217 
L 388.8 114.918261 
L 388.8 110.191304 
L 388.8 105.464348 
L 388.8 100.737391 
L 388.8 96.010435 
L 388.8 91.283478 
L 388.8 86.556522 
L 388.8 81.829565 
L 388.8 77.102609 
L 388.8 72.375652 
L 388.8 67.648696 
L 388.8 62.921739 
L 388.8 58.194783 
L 388.8 53.467826 
L 388.8 48.74087 
L 388.8 44.013913 
L 388.8 39.286957 
L 388.8 34.56 
L 385.08 34.56 
L 381.36 34.56 
L 377.64 34.56 
L 373.92 34.56 
L 370.2 34.56 
L 366.48 34.56 
L 362.76 34.56 
L 359.04 34.56 
L 355.32 34.56 
L 351.6 34.56 
L 347.88 34.56 
L 344.16 34.56 
L 340.44 34.56 
L 336.72 34.56 
L 333 34.56 
L 329.28 34.56 
L 325.56 34.56 
L 321.84 34.56 
L 318.12 34.56 
L 314.4 34.56 
L 310.68 34.56 
L 306.96 34.56 
L 303.24 34.56 
L 299.52 34.56 
L 295.8 34.56 
L 292.08 34.56 
L 288.36 34.56 
L 284.64 34.56 
L 280.92 34.56 
L 277.2 34.56 
L 273.48 34.56 
L 269.76 34.56 
L 266.04 34.56 
L 265.575 34.56 
L 262.32 38.696087 
L 261.855 39.286957 
L 261.855 44.013913 
L 258.6 48.15 
L 258.135 48.74087 
L 258.135 53.467826 
L 254.88 57.603913 
L 254.415 58.194783 
L 254.415 62.921739 
L 251.16 67.057826 
L 250.695 67.648696 
L 250.695 72.375652 
L 247.44 76.511739 
L 246.975 77.102609 
L 246.975 81.829565 
L 243.72 85.965652 
L 243.255 86.556522 
L 243.255 91.283478 
L 240 95.419565 
L 239.535 96.010435 
L 239.07 100.737391 
L 240 101.91913 
L 242.79 105.464348 
L 242.79 110.191304 
L 242.79 114.918261 
L 242.79 119.645217 
L 243.72 120.826957 
L 246.51 124.372174 
L 246.51 129.09913 
L 246.51 133.826087 
L 247.44 135.007826 
L 250.23 138.553043 
L 250.23 143.28 
L 250.23 148.006957 
L 250.23 152.733913 
L 251.16 153.915652 
L 253.95 157.46087 
L 253.95 162.187826 
L 253.95 166.914783 
L 253.95 171.641739 
L 254.88 172.823478 
L 257.67 176.368696 
L 257.67 181.095652 
L 257.67 185.822609 
L 258.6 187.004348 
L 261.39 190.549565 
L 261.39 195.276522 
L 261.39 200.003478 
L 261.39 204.730435 
L 262.32 205.912174 
L 265.11 209.457391 
L 265.11 214.184348 
L 265.11 218.911304 
L 265.11 223.638261 
L 266.04 224.82 
L 268.83 228.365217 
L 268.83 233.092174 
L 268.83 237.81913 
L 269.76 239.00087 
L 272.55 242.546087 
L 272.55 247.273043 
L 272.55 252 
z
" style="fill:#d8e219;fill-opacity:0.4;"/>
   </g>
   <g id="PathCollection_9">
    <defs>
     <path d="M 0 3 
C 0.795609 3 1.55874 2.683901 2.12132 2.12132 
C 2.683901 1.55874 3 0.795609 3 0 
C 3 -0.795609 2.683901 -1.55874 2.12132 -2.12132 
C 1.55874 -2.683901 0.795609 -3 0 -3 
C -0.795609 -3 -1.55874 -2.683901 -2.12132 -2.12132 
C -2.683901 -1.55874 -3 -0.795609 -3 0 
C -3 0.795609 -2.683901 1.55874 -2.12132 2.12132 
C -1.55874 2.683901 -0.795609 3 0 3 
z
" id="C0_0_2a1cea231e"/>
    </defs>
    <g clip-path="url(#pb016d3cd77)">
     <use style="fill:#440154;fill-opacity:0.8;stroke:#440154;stroke-opacity:0.8;" x="111.276026" xlink:href="#C0_0_2a1cea231e" y="129.790758"/>
    </g>
    <g clip-path="url(#pb016d3cd77)">
     <use style="fill:#440154;fill-opacity:0.8;stroke:#440154;stroke-opacity:0.8;" x="110.159429" xlink:href="#C0_0_2a1cea231e" y="153.255298"/>
    </g>
    <g clip-path="url(#pb016d3cd77)">
     <use style="fill:#440154;fill-opacity:0.8;stroke:#440154;stroke-opacity:0.8;" x="103.65505" xlink:href="#C0_0_2a1cea231e" y="151.740223"/>
    </g>
    <g clip-path="url(#pb016d3cd77)">
     <use style="fill:#440154;fill-opacity:0.8;stroke:#440154;stroke-opacity:0.8;" x="108.998745" xlink:href="#C0_0_2a1cea231e" y="159.934381"/>
    </g>
    <g clip-path="url(#pb016d3cd77)">
     <use style="fill:#440154;fill-opacity:0.8;stroke:#440154;stroke-opacity:0.8;" x="109.617244" xlink:href="#C0_0_2a1cea231e" y="129.442983"/>
    </g>
    <g clip-path="url(#pb016d3cd77)">
     <use style="fill:#440154;fill-opacity:0.8;stroke:#440154;stroke-opacity:0.8;" x="126.277521" xlink:href="#C0_0_2a1cea231e" y="109.846159"/>
    </g>
    <g clip-path="url(#pb016d3cd77)">
     <use style="fill:#440154;fill-opacity:0.8;stroke:#440154;stroke-opacity:0.8;" x="106.201495" xlink:href="#C0_0_2a1cea231e" y="149.117328"/>
    </g>
    <g clip-path="url(#pb016d3cd77)">
     <use style="fill:#440154;fill-opacity:0.8;stroke:#440154;stroke-opacity:0.8;" x="113.432906" xlink:href="#C0_0_2a1cea231e" y="137.165391"/>
    </g>
    <g clip-path="url(#pb016d3cd77)">
     <use style="fill:#440154;fill-opacity:0.8;stroke:#440154;stroke-opacity:0.8;" x="103.752062" xlink:href="#C0_0_2a1cea231e" y="172.225072"/>
    </g>
    <g clip-path="url(#pb016d3cd77)">
     <use style="fill:#440154;fill-opacity:0.8;stroke:#440154;stroke-opacity:0.8;" x="111.698984" xlink:href="#C0_0_2a1cea231e" y="150.266586"/>
    </g>
    <g clip-path="url(#pb016d3cd77)">
     <use style="fill:#440154;fill-opacity:0.8;stroke:#440154;stroke-opacity:0.8;" x="117.867067" xlink:href="#C0_0_2a1cea231e" y="114.396401"/>
    </g>
    <g clip-path="url(#pb016d3cd77)">
     <use style="fill:#440154;fill-opacity:0.8;stroke:#440154;stroke-opacity:0.8;" x="113.931005" xlink:href="#C0_0_2a1cea231e" y="144.192249"/>
    </g>
    <g clip-path="url(#pb016d3cd77)">
     <use style="fill:#440154;fill-opacity:0.8;stroke:#440154;stroke-opacity:0.8;" x="107.482235" xlink:href="#C0_0_2a1cea231e" y="156.002169"/>
    </g>
    <g clip-path="url(#pb016d3cd77)">
     <use style="fill:#440154;fill-opacity:0.8;stroke:#440154;stroke-opacity:0.8;" x="91.2" xlink:href="#C0_0_2a1cea231e" y="169.061927"/>
    </g>
    <g clip-path="url(#pb016d3cd77)">
     <use style="fill:#440154;fill-opacity:0.8;stroke:#440154;stroke-opacity:0.8;" x="112.740785" xlink:href="#C0_0_2a1cea231e" y="89.168835"/>
    </g>
    <g clip-path="url(#pb016d3cd77)">
     <use style="fill:#440154;fill-opacity:0.8;stroke:#440154;stroke-opacity:0.8;" x="122.364847" xlink:href="#C0_0_2a1cea231e" y="81.638902"/>
    </g>
    <g clip-path="url(#pb016d3cd77)">
     <use style="fill:#440154;fill-opacity:0.8;stroke:#440154;stroke-opacity:0.8;" x="113.530262" xlink:href="#C0_0_2a1cea231e" y="106.568059"/>
    </g>
    <g clip-path="url(#pb016d3cd77)">
     <use style="fill:#440154;fill-opacity:0.8;stroke:#440154;stroke-opacity:0.8;" x="112.608862" xlink:href="#C0_0_2a1cea231e" y="130.147554"/>
    </g>
    <g clip-path="url(#pb016d3cd77)">
     <use style="fill:#440154;fill-opacity:0.8;stroke:#440154;stroke-opacity:0.8;" x="129.292183" xlink:href="#C0_0_2a1cea231e" y="103.629805"/>
    </g>
    <g clip-path="url(#pb016d3cd77)">
     <use style="fill:#440154;fill-opacity:0.8;stroke:#440154;stroke-opacity:0.8;" x="114.852405" xlink:href="#C0_0_2a1cea231e" y="120.612755"/>
    </g>
    <g clip-path="url(#pb016d3cd77)">
     <use style="fill:#440154;fill-opacity:0.8;stroke:#440154;stroke-opacity:0.8;" x="125.183968" xlink:href="#C0_0_2a1cea231e" y="126.389775"/>
    </g>
    <g clip-path="url(#pb016d3cd77)">
     <use style="fill:#440154;fill-opacity:0.8;stroke:#440154;stroke-opacity:0.8;" x="116.499665" xlink:href="#C0_0_2a1cea231e" y="124.420991"/>
    </g>
    <g clip-path="url(#pb016d3cd77)">
     <use style="fill:#440154;fill-opacity:0.8;stroke:#440154;stroke-opacity:0.8;" x="91.492553" xlink:href="#C0_0_2a1cea231e" y="138.579549"/>
    </g>
    <g clip-path="url(#pb016d3cd77)">
     <use style="fill:#440154;fill-opacity:0.8;stroke:#440154;stroke-opacity:0.8;" x="125.463825" xlink:href="#C0_0_2a1cea231e" y="140.222602"/>
    </g>
    <g clip-path="url(#pb016d3cd77)">
     <use style="fill:#440154;fill-opacity:0.8;stroke:#440154;stroke-opacity:0.8;" x="123.491449" xlink:href="#C0_0_2a1cea231e" y="146.650824"/>
    </g>
    <g clip-path="url(#pb016d3cd77)">
     <use style="fill:#440154;fill-opacity:0.8;stroke:#440154;stroke-opacity:0.8;" x="117.877416" xlink:href="#C0_0_2a1cea231e" y="151.790681"/>
    </g>
    <g clip-path="url(#pb016d3cd77)">
     <use style="fill:#440154;fill-opacity:0.8;stroke:#440154;stroke-opacity:0.8;" x="119.285393" xlink:href="#C0_0_2a1cea231e" y="138.698507"/>
    </g>
    <g clip-path="url(#pb016d3cd77)">
     <use style="fill:#440154;fill-opacity:0.8;stroke:#440154;stroke-opacity:0.8;" x="115.807199" xlink:href="#C0_0_2a1cea231e" y="127.506617"/>
    </g>
    <g clip-path="url(#pb016d3cd77)">
     <use style="fill:#440154;fill-opacity:0.8;stroke:#440154;stroke-opacity:0.8;" x="112.934808" xlink:href="#C0_0_2a1cea231e" y="130.138533"/>
    </g>
    <g clip-path="url(#pb016d3cd77)">
     <use style="fill:#440154;fill-opacity:0.8;stroke:#440154;stroke-opacity:0.8;" x="113.215494" xlink:href="#C0_0_2a1cea231e" y="154.198798"/>
    </g>
    <g clip-path="url(#pb016d3cd77)">
     <use style="fill:#440154;fill-opacity:0.8;stroke:#440154;stroke-opacity:0.8;" x="114.874276" xlink:href="#C0_0_2a1cea231e" y="154.546573"/>
    </g>
    <g clip-path="url(#pb016d3cd77)">
     <use style="fill:#440154;fill-opacity:0.8;stroke:#440154;stroke-opacity:0.8;" x="121.47601" xlink:href="#C0_0_2a1cea231e" y="125.464316"/>
    </g>
    <g clip-path="url(#pb016d3cd77)">
     <use style="fill:#440154;fill-opacity:0.8;stroke:#440154;stroke-opacity:0.8;" x="112.58782" xlink:href="#C0_0_2a1cea231e" y="106.441173"/>
    </g>
    <g clip-path="url(#pb016d3cd77)">
     <use style="fill:#440154;fill-opacity:0.8;stroke:#440154;stroke-opacity:0.8;" x="114.452492" xlink:href="#C0_0_2a1cea231e" y="93.216002"/>
    </g>
    <g clip-path="url(#pb016d3cd77)">
     <use style="fill:#440154;fill-opacity:0.8;stroke:#440154;stroke-opacity:0.8;" x="113.031819" xlink:href="#C0_0_2a1cea231e" y="150.623382"/>
    </g>
    <g clip-path="url(#pb016d3cd77)">
     <use style="fill:#440154;fill-opacity:0.8;stroke:#440154;stroke-opacity:0.8;" x="104.50131" xlink:href="#C0_0_2a1cea231e" y="141.609699"/>
    </g>
    <g clip-path="url(#pb016d3cd77)">
     <use style="fill:#440154;fill-opacity:0.8;stroke:#440154;stroke-opacity:0.8;" x="113.466644" xlink:href="#C0_0_2a1cea231e" y="116.556567"/>
    </g>
    <g clip-path="url(#pb016d3cd77)">
     <use style="fill:#440154;fill-opacity:0.8;stroke:#440154;stroke-opacity:0.8;" x="106.94005" xlink:href="#C0_0_2a1cea231e" y="132.189854"/>
    </g>
    <g clip-path="url(#pb016d3cd77)">
     <use style="fill:#440154;fill-opacity:0.8;stroke:#440154;stroke-opacity:0.8;" x="100.250823" xlink:href="#C0_0_2a1cea231e" y="167.954106"/>
    </g>
    <g clip-path="url(#pb016d3cd77)">
     <use style="fill:#440154;fill-opacity:0.8;stroke:#440154;stroke-opacity:0.8;" x="114.777264" xlink:href="#C0_0_2a1cea231e" y="134.061724"/>
    </g>
    <g clip-path="url(#pb016d3cd77)">
     <use style="fill:#440154;fill-opacity:0.8;stroke:#440154;stroke-opacity:0.8;" x="108.077689" xlink:href="#C0_0_2a1cea231e" y="132.431695"/>
    </g>
    <g clip-path="url(#pb016d3cd77)">
     <use style="fill:#440154;fill-opacity:0.8;stroke:#440154;stroke-opacity:0.8;" x="105.128983" xlink:href="#C0_0_2a1cea231e" y="189.367324"/>
    </g>
    <g clip-path="url(#pb016d3cd77)">
     <use style="fill:#440154;fill-opacity:0.8;stroke:#440154;stroke-opacity:0.8;" x="99.621976" xlink:href="#C0_0_2a1cea231e" y="161.051223"/>
    </g>
    <g clip-path="url(#pb016d3cd77)">
     <use style="fill:#440154;fill-opacity:0.8;stroke:#440154;stroke-opacity:0.8;" x="121.63664" xlink:href="#C0_0_2a1cea231e" y="135.960657"/>
    </g>
    <g clip-path="url(#pb016d3cd77)">
     <use style="fill:#440154;fill-opacity:0.8;stroke:#440154;stroke-opacity:0.8;" x="128.9325" xlink:href="#C0_0_2a1cea231e" y="124.24765"/>
    </g>
    <g clip-path="url(#pb016d3cd77)">
     <use style="fill:#440154;fill-opacity:0.8;stroke:#440154;stroke-opacity:0.8;" x="110.147906" xlink:href="#C0_0_2a1cea231e" y="156.71576"/>
    </g>
    <g clip-path="url(#pb016d3cd77)">
     <use style="fill:#440154;fill-opacity:0.8;stroke:#440154;stroke-opacity:0.8;" x="116.706384" xlink:href="#C0_0_2a1cea231e" y="121.075484"/>
    </g>
    <g clip-path="url(#pb016d3cd77)">
     <use style="fill:#440154;fill-opacity:0.8;stroke:#440154;stroke-opacity:0.8;" x="105.497507" xlink:href="#C0_0_2a1cea231e" y="155.663415"/>
    </g>
    <g clip-path="url(#pb016d3cd77)">
     <use style="fill:#440154;fill-opacity:0.8;stroke:#440154;stroke-opacity:0.8;" x="116.522709" xlink:href="#C0_0_2a1cea231e" y="117.500067"/>
    </g>
    <g clip-path="url(#pb016d3cd77)">
     <use style="fill:#440154;fill-opacity:0.8;stroke:#440154;stroke-opacity:0.8;" x="110.560515" xlink:href="#C0_0_2a1cea231e" y="139.797307"/>
    </g>
    <g clip-path="url(#pb016d3cd77)">
     <use style="fill:#21918c;fill-opacity:0.8;stroke:#21918c;stroke-opacity:0.8;" x="258.921015" xlink:href="#C0_0_2a1cea231e" y="112.501289"/>
    </g>
    <g clip-path="url(#pb016d3cd77)">
     <use style="fill:#21918c;fill-opacity:0.8;stroke:#21918c;stroke-opacity:0.8;" x="245.814073" xlink:href="#C0_0_2a1cea231e" y="129.841034"/>
    </g>
    <g clip-path="url(#pb016d3cd77)">
     <use style="fill:#21918c;fill-opacity:0.8;stroke:#21918c;stroke-opacity:0.8;" x="265.597546" xlink:href="#C0_0_2a1cea231e" y="121.052243"/>
    </g>
    <g clip-path="url(#pb016d3cd77)">
     <use style="fill:#21918c;fill-opacity:0.8;stroke:#21918c;stroke-opacity:0.8;" x="217.944918" xlink:href="#C0_0_2a1cea231e" y="184.02579"/>
    </g>
    <g clip-path="url(#pb016d3cd77)">
     <use style="fill:#21918c;fill-opacity:0.8;stroke:#21918c;stroke-opacity:0.8;" x="251.60294" xlink:href="#C0_0_2a1cea231e" y="141.362658"/>
    </g>
    <g clip-path="url(#pb016d3cd77)">
     <use style="fill:#21918c;fill-opacity:0.8;stroke:#21918c;stroke-opacity:0.8;" x="234.995589" xlink:href="#C0_0_2a1cea231e" y="164.658875"/>
    </g>
    <g clip-path="url(#pb016d3cd77)">
     <use style="fill:#21918c;fill-opacity:0.8;stroke:#21918c;stroke-opacity:0.8;" x="251.861756" xlink:href="#C0_0_2a1cea231e" y="131.489105"/>
    </g>
    <g clip-path="url(#pb016d3cd77)">
     <use style="fill:#21918c;fill-opacity:0.8;stroke:#21918c;stroke-opacity:0.8;" x="183.258136" xlink:href="#C0_0_2a1cea231e" y="192.389286"/>
    </g>
    <g clip-path="url(#pb016d3cd77)">
     <use style="fill:#21918c;fill-opacity:0.8;stroke:#21918c;stroke-opacity:0.8;" x="249.967203" xlink:href="#C0_0_2a1cea231e" y="134.093959"/>
    </g>
    <g clip-path="url(#pb016d3cd77)">
     <use style="fill:#21918c;fill-opacity:0.8;stroke:#21918c;stroke-opacity:0.8;" x="210.80017" xlink:href="#C0_0_2a1cea231e" y="179.068294"/>
    </g>
    <g clip-path="url(#pb016d3cd77)">
     <use style="fill:#21918c;fill-opacity:0.8;stroke:#21918c;stroke-opacity:0.8;" x="192.233818" xlink:href="#C0_0_2a1cea231e" y="204.730435"/>
    </g>
    <g clip-path="url(#pb016d3cd77)">
     <use style="fill:#21918c;fill-opacity:0.8;stroke:#21918c;stroke-opacity:0.8;" x="230.160686" xlink:href="#C0_0_2a1cea231e" y="149.803675"/>
    </g>
    <g clip-path="url(#pb016d3cd77)">
     <use style="fill:#21918c;fill-opacity:0.8;stroke:#21918c;stroke-opacity:0.8;" x="220.982625" xlink:href="#C0_0_2a1cea231e" y="170.888512"/>
    </g>
    <g clip-path="url(#pb016d3cd77)">
     <use style="fill:#21918c;fill-opacity:0.8;stroke:#21918c;stroke-opacity:0.8;" x="247.765063" xlink:href="#C0_0_2a1cea231e" y="150.788613"/>
    </g>
    <g clip-path="url(#pb016d3cd77)">
     <use style="fill:#21918c;fill-opacity:0.8;stroke:#21918c;stroke-opacity:0.8;" x="204.655475" xlink:href="#C0_0_2a1cea231e" y="156.935375"/>
    </g>
    <g clip-path="url(#pb016d3cd77)">
     <use style="fill:#21918c;fill-opacity:0.8;stroke:#21918c;stroke-opacity:0.8;" x="245.64192" xlink:href="#C0_0_2a1cea231e" y="122.805155"/>
    </g>
    <g clip-path="url(#pb016d3cd77)">
     <use style="fill:#21918c;fill-opacity:0.8;stroke:#21918c;stroke-opacity:0.8;" x="235.688055" xlink:href="#C0_0_2a1cea231e" y="161.57325"/>
    </g>
    <g clip-path="url(#pb016d3cd77)">
     <use style="fill:#21918c;fill-opacity:0.8;stroke:#21918c;stroke-opacity:0.8;" x="219.908605" xlink:href="#C0_0_2a1cea231e" y="160.658163"/>
    </g>
    <g clip-path="url(#pb016d3cd77)">
     <use style="fill:#21918c;fill-opacity:0.8;stroke:#21918c;stroke-opacity:0.8;" x="246.269594" xlink:href="#C0_0_2a1cea231e" y="170.562781"/>
    </g>
    <g clip-path="url(#pb016d3cd77)">
     <use style="fill:#21918c;fill-opacity:0.8;stroke:#21918c;stroke-opacity:0.8;" x="212.807943" xlink:href="#C0_0_2a1cea231e" y="172.486124"/>
    </g>
    <g clip-path="url(#pb016d3cd77)">
     <use style="fill:#21918c;fill-opacity:0.8;stroke:#21918c;stroke-opacity:0.8;" x="252.651233" xlink:href="#C0_0_2a1cea231e" y="148.888329"/>
    </g>
    <g clip-path="url(#pb016d3cd77)">
     <use style="fill:#21918c;fill-opacity:0.8;stroke:#21918c;stroke-opacity:0.8;" x="224.438948" xlink:href="#C0_0_2a1cea231e" y="148.146583"/>
    </g>
    <g clip-path="url(#pb016d3cd77)">
     <use style="fill:#21918c;fill-opacity:0.8;stroke:#21918c;stroke-opacity:0.8;" x="259.417939" xlink:href="#C0_0_2a1cea231e" y="160.382891"/>
    </g>
    <g clip-path="url(#pb016d3cd77)">
     <use style="fill:#21918c;fill-opacity:0.8;stroke:#21918c;stroke-opacity:0.8;" x="245.413815" xlink:href="#C0_0_2a1cea231e" y="153.526463"/>
    </g>
    <g clip-path="url(#pb016d3cd77)">
     <use style="fill:#21918c;fill-opacity:0.8;stroke:#21918c;stroke-opacity:0.8;" x="237.718043" xlink:href="#C0_0_2a1cea231e" y="137.842717"/>
    </g>
    <g clip-path="url(#pb016d3cd77)">
     <use style="fill:#21918c;fill-opacity:0.8;stroke:#21918c;stroke-opacity:0.8;" x="244.611986" xlink:href="#C0_0_2a1cea231e" y="129.360263"/>
    </g>
    <g clip-path="url(#pb016d3cd77)">
     <use style="fill:#21918c;fill-opacity:0.8;stroke:#21918c;stroke-opacity:0.8;" x="260.676808" xlink:href="#C0_0_2a1cea231e" y="133.333913"/>
    </g>
    <g clip-path="url(#pb016d3cd77)">
     <use style="fill:#21918c;fill-opacity:0.8;stroke:#21918c;stroke-opacity:0.8;" x="269.075739" xlink:href="#C0_0_2a1cea231e" y="132.244134"/>
    </g>
    <g clip-path="url(#pb016d3cd77)">
     <use style="fill:#21918c;fill-opacity:0.8;stroke:#21918c;stroke-opacity:0.8;" x="241.379911" xlink:href="#C0_0_2a1cea231e" y="152.610025"/>
    </g>
    <g clip-path="url(#pb016d3cd77)">
     <use style="fill:#21918c;fill-opacity:0.8;stroke:#21918c;stroke-opacity:0.8;" x="199.757783" xlink:href="#C0_0_2a1cea231e" y="162.296121"/>
    </g>
    <g clip-path="url(#pb016d3cd77)">
     <use style="fill:#21918c;fill-opacity:0.8;stroke:#21918c;stroke-opacity:0.8;" x="208.591194" xlink:href="#C0_0_2a1cea231e" y="178.221707"/>
    </g>
    <g clip-path="url(#pb016d3cd77)">
     <use style="fill:#21918c;fill-opacity:0.8;stroke:#21918c;stroke-opacity:0.8;" x="204.071543" xlink:href="#C0_0_2a1cea231e" y="177.045387"/>
    </g>
    <g clip-path="url(#pb016d3cd77)">
     <use style="fill:#21918c;fill-opacity:0.8;stroke:#21918c;stroke-opacity:0.8;" x="216.200647" xlink:href="#C0_0_2a1cea231e" y="159.732704"/>
    </g>
    <g clip-path="url(#pb016d3cd77)">
     <use style="fill:#21918c;fill-opacity:0.8;stroke:#21918c;stroke-opacity:0.8;" x="262.462483" xlink:href="#C0_0_2a1cea231e" y="164.786853"/>
    </g>
    <g clip-path="url(#pb016d3cd77)">
     <use style="fill:#21918c;fill-opacity:0.8;stroke:#21918c;stroke-opacity:0.8;" x="232.999339" xlink:href="#C0_0_2a1cea231e" y="167.780583"/>
    </g>
    <g clip-path="url(#pb016d3cd77)">
     <use style="fill:#21918c;fill-opacity:0.8;stroke:#21918c;stroke-opacity:0.8;" x="241.140628" xlink:href="#C0_0_2a1cea231e" y="135.709613"/>
    </g>
    <g clip-path="url(#pb016d3cd77)">
     <use style="fill:#21918c;fill-opacity:0.8;stroke:#21918c;stroke-opacity:0.8;" x="256.5352" xlink:href="#C0_0_2a1cea231e" y="125.620526"/>
    </g>
    <g clip-path="url(#pb016d3cd77)">
     <use style="fill:#21918c;fill-opacity:0.8;stroke:#21918c;stroke-opacity:0.8;" x="241.447042" xlink:href="#C0_0_2a1cea231e" y="162.474557"/>
    </g>
    <g clip-path="url(#pb016d3cd77)">
     <use style="fill:#21918c;fill-opacity:0.8;stroke:#21918c;stroke-opacity:0.8;" x="220.275125" xlink:href="#C0_0_2a1cea231e" y="157.581559"/>
    </g>
    <g clip-path="url(#pb016d3cd77)">
     <use style="fill:#21918c;fill-opacity:0.8;stroke:#21918c;stroke-opacity:0.8;" x="217.316071" xlink:href="#C0_0_2a1cea231e" y="177.122907"/>
    </g>
    <g clip-path="url(#pb016d3cd77)">
     <use style="fill:#21918c;fill-opacity:0.8;stroke:#21918c;stroke-opacity:0.8;" x="228.41607" xlink:href="#C0_0_2a1cea231e" y="176.59277"/>
    </g>
    <g clip-path="url(#pb016d3cd77)">
     <use style="fill:#21918c;fill-opacity:0.8;stroke:#21918c;stroke-opacity:0.8;" x="244.263825" xlink:href="#C0_0_2a1cea231e" y="146.517646"/>
    </g>
    <g clip-path="url(#pb016d3cd77)">
     <use style="fill:#21918c;fill-opacity:0.8;stroke:#21918c;stroke-opacity:0.8;" x="219.701886" xlink:href="#C0_0_2a1cea231e" y="164.00367"/>
    </g>
    <g clip-path="url(#pb016d3cd77)">
     <use style="fill:#21918c;fill-opacity:0.8;stroke:#21918c;stroke-opacity:0.8;" x="184.916918" xlink:href="#C0_0_2a1cea231e" y="192.737061"/>
    </g>
    <g clip-path="url(#pb016d3cd77)">
     <use style="fill:#21918c;fill-opacity:0.8;stroke:#21918c;stroke-opacity:0.8;" x="224.405211" xlink:href="#C0_0_2a1cea231e" y="168.755408"/>
    </g>
    <g clip-path="url(#pb016d3cd77)">
     <use style="fill:#21918c;fill-opacity:0.8;stroke:#21918c;stroke-opacity:0.8;" x="223.473462" xlink:href="#C0_0_2a1cea231e" y="154.940621"/>
    </g>
    <g clip-path="url(#pb016d3cd77)">
     <use style="fill:#21918c;fill-opacity:0.8;stroke:#21918c;stroke-opacity:0.8;" x="225.120721" xlink:href="#C0_0_2a1cea231e" y="158.748858"/>
    </g>
    <g clip-path="url(#pb016d3cd77)">
     <use style="fill:#21918c;fill-opacity:0.8;stroke:#21918c;stroke-opacity:0.8;" x="235.029327" xlink:href="#C0_0_2a1cea231e" y="144.05005"/>
    </g>
    <g clip-path="url(#pb016d3cd77)">
     <use style="fill:#21918c;fill-opacity:0.8;stroke:#21918c;stroke-opacity:0.8;" x="177.40482" xlink:href="#C0_0_2a1cea231e" y="180.628732"/>
    </g>
    <g clip-path="url(#pb016d3cd77)">
     <use style="fill:#21918c;fill-opacity:0.8;stroke:#21918c;stroke-opacity:0.8;" x="222.248331" xlink:href="#C0_0_2a1cea231e" y="161.380775"/>
    </g>
    <g clip-path="url(#pb016d3cd77)">
     <use style="fill:#fde725;fill-opacity:0.8;stroke:#fde725;stroke-opacity:0.8;" x="305.285869" xlink:href="#C0_0_2a1cea231e" y="145.35409"/>
    </g>
    <g clip-path="url(#pb016d3cd77)">
     <use style="fill:#fde725;fill-opacity:0.8;stroke:#fde725;stroke-opacity:0.8;" x="263.772274" xlink:href="#C0_0_2a1cea231e" y="172.064573"/>
    </g>
    <g clip-path="url(#pb016d3cd77)">
     <use style="fill:#fde725;fill-opacity:0.8;stroke:#fde725;stroke-opacity:0.8;" x="308.465847" xlink:href="#C0_0_2a1cea231e" y="128.632375"/>
    </g>
    <g clip-path="url(#pb016d3cd77)">
     <use style="fill:#fde725;fill-opacity:0.8;stroke:#fde725;stroke-opacity:0.8;" x="284.466454" xlink:href="#C0_0_2a1cea231e" y="153.384187"/>
    </g>
    <g clip-path="url(#pb016d3cd77)">
     <use style="fill:#fde725;fill-opacity:0.8;stroke:#fde725;stroke-opacity:0.8;" x="298.545719" xlink:href="#C0_0_2a1cea231e" y="146.791644"/>
    </g>
    <g clip-path="url(#pb016d3cd77)">
     <use style="fill:#fde725;fill-opacity:0.8;stroke:#fde725;stroke-opacity:0.8;" x="337.49534" xlink:href="#C0_0_2a1cea231e" y="118.850717"/>
    </g>
    <g clip-path="url(#pb016d3cd77)">
     <use style="fill:#fde725;fill-opacity:0.8;stroke:#fde725;stroke-opacity:0.8;" x="230.515339" xlink:href="#C0_0_2a1cea231e" y="201.269713"/>
    </g>
    <g clip-path="url(#pb016d3cd77)">
     <use style="fill:#fde725;fill-opacity:0.8;stroke:#fde725;stroke-opacity:0.8;" x="320.217738" xlink:href="#C0_0_2a1cea231e" y="128.084196"/>
    </g>
    <g clip-path="url(#pb016d3cd77)">
     <use style="fill:#fde725;fill-opacity:0.8;stroke:#fde725;stroke-opacity:0.8;" x="297.475211" xlink:href="#C0_0_2a1cea231e" y="156.414336"/>
    </g>
    <g clip-path="url(#pb016d3cd77)">
     <use style="fill:#fde725;fill-opacity:0.8;stroke:#fde725;stroke-opacity:0.8;" x="319.628635" xlink:href="#C0_0_2a1cea231e" y="107.886292"/>
    </g>
    <g clip-path="url(#pb016d3cd77)">
     <use style="fill:#fde725;fill-opacity:0.8;stroke:#fde725;stroke-opacity:0.8;" x="272.943498" xlink:href="#C0_0_2a1cea231e" y="133.438496"/>
    </g>
    <g clip-path="url(#pb016d3cd77)">
     <use style="fill:#fde725;fill-opacity:0.8;stroke:#fde725;stroke-opacity:0.8;" x="278.212052" xlink:href="#C0_0_2a1cea231e" y="155.081623"/>
    </g>
    <g clip-path="url(#pb016d3cd77)">
     <use style="fill:#fde725;fill-opacity:0.8;stroke:#fde725;stroke-opacity:0.8;" x="291.685514" xlink:href="#C0_0_2a1cea231e" y="134.665274"/>
    </g>
    <g clip-path="url(#pb016d3cd77)">
     <use style="fill:#fde725;fill-opacity:0.8;stroke:#fde725;stroke-opacity:0.8;" x="261.202784" xlink:href="#C0_0_2a1cea231e" y="181.608393"/>
    </g>
    <g clip-path="url(#pb016d3cd77)">
     <use style="fill:#fde725;fill-opacity:0.8;stroke:#fde725;stroke-opacity:0.8;" x="270.122029" xlink:href="#C0_0_2a1cea231e" y="170.397109"/>
    </g>
    <g clip-path="url(#pb016d3cd77)">
     <use style="fill:#fde725;fill-opacity:0.8;stroke:#fde725;stroke-opacity:0.8;" x="281.971276" xlink:href="#C0_0_2a1cea231e" y="139.251599"/>
    </g>
    <g clip-path="url(#pb016d3cd77)">
     <use style="fill:#fde725;fill-opacity:0.8;stroke:#fde725;stroke-opacity:0.8;" x="283.653932" xlink:href="#C0_0_2a1cea231e" y="142.905887"/>
    </g>
    <g clip-path="url(#pb016d3cd77)">
     <use style="fill:#fde725;fill-opacity:0.8;stroke:#fde725;stroke-opacity:0.8;" x="340.843959" xlink:href="#C0_0_2a1cea231e" y="89.31184"/>
    </g>
    <g clip-path="url(#pb016d3cd77)">
     <use style="fill:#fde725;fill-opacity:0.8;stroke:#fde725;stroke-opacity:0.8;" x="352.323509" xlink:href="#C0_0_2a1cea231e" y="132.724982"/>
    </g>
    <g clip-path="url(#pb016d3cd77)">
     <use style="fill:#fde725;fill-opacity:0.8;stroke:#fde725;stroke-opacity:0.8;" x="259.514951" xlink:href="#C0_0_2a1cea231e" y="180.867739"/>
    </g>
    <g clip-path="url(#pb016d3cd77)">
     <use style="fill:#fde725;fill-opacity:0.8;stroke:#fde725;stroke-opacity:0.8;" x="301.440326" xlink:href="#C0_0_2a1cea231e" y="127.011366"/>
    </g>
    <g clip-path="url(#pb016d3cd77)">
     <use style="fill:#fde725;fill-opacity:0.8;stroke:#fde725;stroke-opacity:0.8;" x="255.72834" xlink:href="#C0_0_2a1cea231e" y="173.53821"/>
    </g>
    <g clip-path="url(#pb016d3cd77)">
     <use style="fill:#fde725;fill-opacity:0.8;stroke:#fde725;stroke-opacity:0.8;" x="341.322525" xlink:href="#C0_0_2a1cea231e" y="123.112663"/>
    </g>
    <g clip-path="url(#pb016d3cd77)">
     <use style="fill:#fde725;fill-opacity:0.8;stroke:#fde725;stroke-opacity:0.8;" x="262.787599" xlink:href="#C0_0_2a1cea231e" y="154.550394"/>
    </g>
    <g clip-path="url(#pb016d3cd77)">
     <use style="fill:#fde725;fill-opacity:0.8;stroke:#fde725;stroke-opacity:0.8;" x="295.771514" xlink:href="#C0_0_2a1cea231e" y="129.053667"/>
    </g>
    <g clip-path="url(#pb016d3cd77)">
     <use style="fill:#fde725;fill-opacity:0.8;stroke:#fde725;stroke-opacity:0.8;" x="308.369665" xlink:href="#C0_0_2a1cea231e" y="118.374964"/>
    </g>
    <g clip-path="url(#pb016d3cd77)">
     <use style="fill:#fde725;fill-opacity:0.8;stroke:#fde725;stroke-opacity:0.8;" x="257.942003" xlink:href="#C0_0_2a1cea231e" y="153.383095"/>
    </g>
    <g clip-path="url(#pb016d3cd77)">
     <use style="fill:#fde725;fill-opacity:0.8;stroke:#fde725;stroke-opacity:0.8;" x="259.155612" xlink:href="#C0_0_2a1cea231e" y="150.403403"/>
    </g>
    <g clip-path="url(#pb016d3cd77)">
     <use style="fill:#fde725;fill-opacity:0.8;stroke:#fde725;stroke-opacity:0.8;" x="290.123744" xlink:href="#C0_0_2a1cea231e" y="154.802348"/>
    </g>
    <g clip-path="url(#pb016d3cd77)">
     <use style="fill:#fde725;fill-opacity:0.8;stroke:#fde725;stroke-opacity:0.8;" x="299.959211" xlink:href="#C0_0_2a1cea231e" y="122.925205"/>
    </g>
    <g clip-path="url(#pb016d3cd77)">
     <use style="fill:#fde725;fill-opacity:0.8;stroke:#fde725;stroke-opacity:0.8;" x="316.835727" xlink:href="#C0_0_2a1cea231e" y="127.149717"/>
    </g>
    <g clip-path="url(#pb016d3cd77)">
     <use style="fill:#fde725;fill-opacity:0.8;stroke:#fde725;stroke-opacity:0.8;" x="331.306559" xlink:href="#C0_0_2a1cea231e" y="79.932341"/>
    </g>
    <g clip-path="url(#pb016d3cd77)">
     <use style="fill:#fde725;fill-opacity:0.8;stroke:#fde725;stroke-opacity:0.8;" x="291.45658" xlink:href="#C0_0_2a1cea231e" y="155.159144"/>
    </g>
    <g clip-path="url(#pb016d3cd77)">
     <use style="fill:#fde725;fill-opacity:0.8;stroke:#fde725;stroke-opacity:0.8;" x="264.848297" xlink:href="#C0_0_2a1cea231e" y="151.667617"/>
    </g>
    <g clip-path="url(#pb016d3cd77)">
     <use style="fill:#fde725;fill-opacity:0.8;stroke:#fde725;stroke-opacity:0.8;" x="277.389666" xlink:href="#C0_0_2a1cea231e" y="168.518662"/>
    </g>
    <g clip-path="url(#pb016d3cd77)">
     <use style="fill:#fde725;fill-opacity:0.8;stroke:#fde725;stroke-opacity:0.8;" x="325.571297" xlink:href="#C0_0_2a1cea231e" y="112.363016"/>
    </g>
    <g clip-path="url(#pb016d3cd77)">
     <use style="fill:#fde725;fill-opacity:0.8;stroke:#fde725;stroke-opacity:0.8;" x="290.891351" xlink:href="#C0_0_2a1cea231e" y="138.267753"/>
    </g>
    <g clip-path="url(#pb016d3cd77)">
     <use style="fill:#fde725;fill-opacity:0.8;stroke:#fde725;stroke-opacity:0.8;" x="281.99515" xlink:href="#C0_0_2a1cea231e" y="142.558113"/>
    </g>
    <g clip-path="url(#pb016d3cd77)">
     <use style="fill:#fde725;fill-opacity:0.8;stroke:#fde725;stroke-opacity:0.8;" x="254.624439" xlink:href="#C0_0_2a1cea231e" y="152.687545"/>
    </g>
    <g clip-path="url(#pb016d3cd77)">
     <use style="fill:#fde725;fill-opacity:0.8;stroke:#fde725;stroke-opacity:0.8;" x="289.528634" xlink:href="#C0_0_2a1cea231e" y="127.290641"/>
    </g>
    <g clip-path="url(#pb016d3cd77)">
     <use style="fill:#fde725;fill-opacity:0.8;stroke:#fde725;stroke-opacity:0.8;" x="297.212054" xlink:href="#C0_0_2a1cea231e" y="136.207411"/>
    </g>
    <g clip-path="url(#pb016d3cd77)">
     <use style="fill:#fde725;fill-opacity:0.8;stroke:#fde725;stroke-opacity:0.8;" x="282.633861" xlink:href="#C0_0_2a1cea231e" y="125.545657"/>
    </g>
    <g clip-path="url(#pb016d3cd77)">
     <use style="fill:#fde725;fill-opacity:0.8;stroke:#fde725;stroke-opacity:0.8;" x="263.772274" xlink:href="#C0_0_2a1cea231e" y="172.064573"/>
    </g>
    <g clip-path="url(#pb016d3cd77)">
     <use style="fill:#fde725;fill-opacity:0.8;stroke:#fde725;stroke-opacity:0.8;" x="306.469597" xlink:href="#C0_0_2a1cea231e" y="131.754083"/>
    </g>
    <g clip-path="url(#pb016d3cd77)">
     <use style="fill:#fde725;fill-opacity:0.8;stroke:#fde725;stroke-opacity:0.8;" x="301.102857" xlink:href="#C0_0_2a1cea231e" y="130.480849"/>
    </g>
    <g clip-path="url(#pb016d3cd77)">
     <use style="fill:#fde725;fill-opacity:0.8;stroke:#fde725;stroke-opacity:0.8;" x="283.446384" xlink:href="#C0_0_2a1cea231e" y="136.023957"/>
    </g>
    <g clip-path="url(#pb016d3cd77)">
     <use style="fill:#fde725;fill-opacity:0.8;stroke:#fde725;stroke-opacity:0.8;" x="267.936097" xlink:href="#C0_0_2a1cea231e" y="162.629598"/>
    </g>
    <g clip-path="url(#pb016d3cd77)">
     <use style="fill:#fde725;fill-opacity:0.8;stroke:#fde725;stroke-opacity:0.8;" x="276.75916" xlink:href="#C0_0_2a1cea231e" y="141.160903"/>
    </g>
    <g clip-path="url(#pb016d3cd77)">
     <use style="fill:#fde725;fill-opacity:0.8;stroke:#fde725;stroke-opacity:0.8;" x="281.840527" xlink:href="#C0_0_2a1cea231e" y="139.375574"/>
    </g>
    <g clip-path="url(#pb016d3cd77)">
     <use style="fill:#fde725;fill-opacity:0.8;stroke:#fde725;stroke-opacity:0.8;" x="262.840525" xlink:href="#C0_0_2a1cea231e" y="158.249787"/>
    </g>
   </g>
   <g id="matplotlib.axis_1">
    <g id="xtick_1">
     <g id="line2d_1">
      <defs>
       <path d="M 0 0 
L 0 3.5 
" id="mb9e1850d9c" style="stroke:#000000;stroke-width:0.8;"/>
      </defs>
      <g>
       <use style="stroke:#000000;stroke-width:0.8;" x="62.325499" xlink:href="#mb9e1850d9c" y="252"/>
      </g>
     </g>
     <g id="text_1">
      <!-- 4 -->
      <defs>
       <path d="M 5 40.09375 
L 77.40625 40.09375 
L 77.40625 31.90625 
L 5 31.90625 
z
" id="PingFang%20SC%20Medium-8722"/>
       <path d="M 38.40625 71.40625 
L 46.09375 71.40625 
L 46.09375 22.90625 
L 57.703125 22.90625 
L 57.703125 16.203125 
L 46.09375 16.203125 
L 46.09375 0 
L 38.296875 0 
L 38.296875 16.203125 
L 2.40625 16.203125 
L 2.40625 24 
z
M 38 60.703125 
L 9.296875 22.90625 
L 38.296875 22.90625 
L 38.296875 60.703125 
z
" id="PingFang%20SC%20Medium-52"/>
      </defs>
      <g transform="translate(55.205187 266.279688)scale(0.1 -0.1)">
       <use xlink:href="#PingFang%20SC%20Medium-8722"/>
       <use x="82.399994" xlink:href="#PingFang%20SC%20Medium-52"/>
      </g>
     </g>
    </g>
    <g id="xtick_2">
     <g id="line2d_2">
      <g>
       <use style="stroke:#000000;stroke-width:0.8;" x="99.525499" xlink:href="#mb9e1850d9c" y="252"/>
      </g>
     </g>
     <g id="text_2">
      <!-- 3 -->
      <defs>
       <path d="M 30.703125 72.796875 
Q 41.09375 72.796875 47.296875 67.59375 
Q 53.5 62.296875 53.5 53.40625 
Q 53.5 41.296875 41.796875 37.40625 
Q 48.203125 35.40625 51.40625 31.296875 
Q 55 27.09375 55 20.796875 
Q 55 11.09375 48.203125 4.90625 
Q 41.296875 -1.40625 30.203125 -1.40625 
Q 20.203125 -1.40625 13.59375 3.796875 
Q 6 10.09375 5.09375 22.09375 
L 13.40625 22.09375 
Q 13.703125 13.703125 19 9.296875 
Q 23.59375 5.59375 30.203125 5.59375 
Q 37.796875 5.59375 42.5 10 
Q 46.796875 14.296875 46.796875 20.5 
Q 46.796875 26.90625 42.59375 30.5 
Q 38.5 34 31 34 
L 25.203125 34 
L 25.203125 40.40625 
L 30.703125 40.40625 
Q 37.796875 40.40625 41.59375 43.59375 
Q 45.40625 46.90625 45.40625 52.90625 
Q 45.40625 58.796875 41.703125 62.203125 
Q 37.90625 65.703125 30.796875 65.703125 
Q 23.5 65.703125 19.59375 61.90625 
Q 15.5 58.09375 14.703125 50.796875 
L 6.59375 50.796875 
Q 7.5 61.09375 14.203125 67 
Q 20.40625 72.796875 30.703125 72.796875 
z
" id="PingFang%20SC%20Medium-51"/>
      </defs>
      <g transform="translate(92.405187 266.279688)scale(0.1 -0.1)">
       <use xlink:href="#PingFang%20SC%20Medium-8722"/>
       <use x="82.399994" xlink:href="#PingFang%20SC%20Medium-51"/>
      </g>
     </g>
    </g>
    <g id="xtick_3">
     <g id="line2d_3">
      <g>
       <use style="stroke:#000000;stroke-width:0.8;" x="136.725499" xlink:href="#mb9e1850d9c" y="252"/>
      </g>
     </g>
     <g id="text_3">
      <!-- 2 -->
      <defs>
       <path d="M 31 72.796875 
Q 40.90625 72.796875 47.296875 67.09375 
Q 53.703125 61.296875 53.703125 52 
Q 53.703125 42.796875 46.703125 35.203125 
Q 42.59375 30.90625 31.90625 23.703125 
Q 18.296875 14.59375 16.296875 7.296875 
L 53.796875 7.296875 
L 53.796875 0 
L 6.203125 0 
Q 6.203125 9.90625 13.296875 17.703125 
Q 17.90625 22.90625 28.796875 30.40625 
Q 37.296875 36.5 40 39.296875 
Q 45.5 45.296875 45.5 52.09375 
Q 45.5 58.59375 41.59375 62.203125 
Q 37.703125 65.796875 30.703125 65.796875 
Q 23.203125 65.796875 19.40625 60.796875 
Q 15.09375 55.90625 15 46.5 
L 6.796875 46.5 
Q 6.796875 58.40625 13.5 65.59375 
Q 20.09375 72.796875 31 72.796875 
z
" id="PingFang%20SC%20Medium-50"/>
      </defs>
      <g transform="translate(129.605187 266.279688)scale(0.1 -0.1)">
       <use xlink:href="#PingFang%20SC%20Medium-8722"/>
       <use x="82.399994" xlink:href="#PingFang%20SC%20Medium-50"/>
      </g>
     </g>
    </g>
    <g id="xtick_4">
     <g id="line2d_4">
      <g>
       <use style="stroke:#000000;stroke-width:0.8;" x="173.925499" xlink:href="#mb9e1850d9c" y="252"/>
      </g>
     </g>
     <g id="text_4">
      <!-- 1 -->
      <defs>
       <path d="M 36.09375 71.40625 
L 36.09375 0 
L 27.90625 0 
L 27.90625 61.40625 
Q 21.296875 54.59375 11.09375 51.59375 
L 11.09375 59.796875 
Q 15.796875 61.09375 21.09375 64.203125 
Q 26 67.203125 29.703125 71.40625 
z
" id="PingFang%20SC%20Medium-49"/>
      </defs>
      <g transform="translate(166.805187 266.279688)scale(0.1 -0.1)">
       <use xlink:href="#PingFang%20SC%20Medium-8722"/>
       <use x="82.399994" xlink:href="#PingFang%20SC%20Medium-49"/>
      </g>
     </g>
    </g>
    <g id="xtick_5">
     <g id="line2d_5">
      <g>
       <use style="stroke:#000000;stroke-width:0.8;" x="211.125499" xlink:href="#mb9e1850d9c" y="252"/>
      </g>
     </g>
     <g id="text_5">
      <!-- 0 -->
      <defs>
       <path d="M 30 72.796875 
Q 42.796875 72.796875 49.296875 61.5 
Q 55 51.90625 55 35.703125 
Q 55 19.5 49.296875 9.90625 
Q 42.703125 -1.40625 30 -1.40625 
Q 17.203125 -1.40625 10.703125 9.90625 
Q 5 19.5 5 35.703125 
Q 5 51.90625 10.703125 61.5 
Q 17.09375 72.796875 30 72.796875 
z
M 30 65.796875 
Q 20.40625 65.796875 16.203125 55.5 
Q 13.203125 48.296875 13.203125 35.703125 
Q 13.203125 23.296875 16.203125 15.90625 
Q 20.40625 5.59375 30 5.59375 
Q 39.59375 5.59375 43.796875 15.90625 
Q 46.90625 23.5 46.90625 35.703125 
Q 46.90625 48.09375 43.796875 55.5 
Q 39.59375 65.796875 30 65.796875 
z
" id="PingFang%20SC%20Medium-48"/>
      </defs>
      <g transform="translate(208.125499 266.279688)scale(0.1 -0.1)">
       <use xlink:href="#PingFang%20SC%20Medium-48"/>
      </g>
     </g>
    </g>
    <g id="xtick_6">
     <g id="line2d_6">
      <g>
       <use style="stroke:#000000;stroke-width:0.8;" x="248.325499" xlink:href="#mb9e1850d9c" y="252"/>
      </g>
     </g>
     <g id="text_6">
      <!-- 1 -->
      <g transform="translate(245.325499 266.279688)scale(0.1 -0.1)">
       <use xlink:href="#PingFang%20SC%20Medium-49"/>
      </g>
     </g>
    </g>
    <g id="xtick_7">
     <g id="line2d_7">
      <g>
       <use style="stroke:#000000;stroke-width:0.8;" x="285.525499" xlink:href="#mb9e1850d9c" y="252"/>
      </g>
     </g>
     <g id="text_7">
      <!-- 2 -->
      <g transform="translate(282.525499 266.279688)scale(0.1 -0.1)">
       <use xlink:href="#PingFang%20SC%20Medium-50"/>
      </g>
     </g>
    </g>
    <g id="xtick_8">
     <g id="line2d_8">
      <g>
       <use style="stroke:#000000;stroke-width:0.8;" x="322.725499" xlink:href="#mb9e1850d9c" y="252"/>
      </g>
     </g>
     <g id="text_8">
      <!-- 3 -->
      <g transform="translate(319.725499 266.279688)scale(0.1 -0.1)">
       <use xlink:href="#PingFang%20SC%20Medium-51"/>
      </g>
     </g>
    </g>
    <g id="xtick_9">
     <g id="line2d_9">
      <g>
       <use style="stroke:#000000;stroke-width:0.8;" x="359.925499" xlink:href="#mb9e1850d9c" y="252"/>
      </g>
     </g>
     <g id="text_9">
      <!-- 4 -->
      <g transform="translate(356.925499 266.279688)scale(0.1 -0.1)">
       <use xlink:href="#PingFang%20SC%20Medium-52"/>
      </g>
     </g>
    </g>
   </g>
   <g id="matplotlib.axis_2">
    <g id="ytick_1">
     <g id="line2d_10">
      <defs>
       <path d="M 0 0 
L -3.5 0 
" id="m170199c6b6" style="stroke:#000000;stroke-width:0.8;"/>
      </defs>
      <g>
       <use style="stroke:#000000;stroke-width:0.8;" x="54" xlink:href="#m170199c6b6" y="239.427657"/>
      </g>
     </g>
     <g id="text_10">
      <!-- 2 -->
      <g transform="translate(32.759375 243.067501)scale(0.1 -0.1)">
       <use xlink:href="#PingFang%20SC%20Medium-8722"/>
       <use x="82.399994" xlink:href="#PingFang%20SC%20Medium-50"/>
      </g>
     </g>
    </g>
    <g id="ytick_2">
     <g id="line2d_11">
      <g>
       <use style="stroke:#000000;stroke-width:0.8;" x="54" xlink:href="#m170199c6b6" y="192.158092"/>
      </g>
     </g>
     <g id="text_11">
      <!-- 1 -->
      <g transform="translate(32.759375 195.797936)scale(0.1 -0.1)">
       <use xlink:href="#PingFang%20SC%20Medium-8722"/>
       <use x="82.399994" xlink:href="#PingFang%20SC%20Medium-49"/>
      </g>
     </g>
    </g>
    <g id="ytick_3">
     <g id="line2d_12">
      <g>
       <use style="stroke:#000000;stroke-width:0.8;" x="54" xlink:href="#m170199c6b6" y="144.888527"/>
      </g>
     </g>
     <g id="text_12">
      <!-- 0 -->
      <g transform="translate(41 148.528371)scale(0.1 -0.1)">
       <use xlink:href="#PingFang%20SC%20Medium-48"/>
      </g>
     </g>
    </g>
    <g id="ytick_4">
     <g id="line2d_13">
      <g>
       <use style="stroke:#000000;stroke-width:0.8;" x="54" xlink:href="#m170199c6b6" y="97.618962"/>
      </g>
     </g>
     <g id="text_13">
      <!-- 1 -->
      <g transform="translate(41 101.258806)scale(0.1 -0.1)">
       <use xlink:href="#PingFang%20SC%20Medium-49"/>
      </g>
     </g>
    </g>
    <g id="ytick_5">
     <g id="line2d_14">
      <g>
       <use style="stroke:#000000;stroke-width:0.8;" x="54" xlink:href="#m170199c6b6" y="50.349397"/>
      </g>
     </g>
     <g id="text_14">
      <!-- 2 -->
      <g transform="translate(41 53.98924)scale(0.1 -0.1)">
       <use xlink:href="#PingFang%20SC%20Medium-50"/>
      </g>
     </g>
    </g>
   </g>
   <g id="patch_3">
    <path d="M 54 252 
L 54 34.56 
" style="fill:none;stroke:#000000;stroke-linecap:square;stroke-linejoin:miter;stroke-width:0.8;"/>
   </g>
   <g id="patch_4">
    <path d="M 388.8 252 
L 388.8 34.56 
" style="fill:none;stroke:#000000;stroke-linecap:square;stroke-linejoin:miter;stroke-width:0.8;"/>
   </g>
   <g id="patch_5">
    <path d="M 54 252 
L 388.8 252 
" style="fill:none;stroke:#000000;stroke-linecap:square;stroke-linejoin:miter;stroke-width:0.8;"/>
   </g>
   <g id="patch_6">
    <path d="M 54 34.56 
L 388.8 34.56 
" style="fill:none;stroke:#000000;stroke-linecap:square;stroke-linejoin:miter;stroke-width:0.8;"/>
   </g>
  </g>
 </g>
 <defs>
  <clipPath id="pb016d3cd77">
   <rect height="217.44" width="334.8" x="54" y="34.56"/>
  </clipPath>
 </defs>
</svg>
